<svg width="229" height="250" viewBox="0 0 229 250" fill="none" xmlns="http://www.w3.org/2000/svg">
<path d="M51.0963 176.024C44.8638 179.336 39.3508 183.852 34.877 189.31C34.2401 190.093 33.8666 191.057 33.81 192.064C33.7534 193.072 34.0166 194.071 34.5618 194.92C35.1071 195.769 35.9067 196.424 36.8464 196.792C37.7861 197.159 38.8179 197.221 39.7945 196.967C33.9449 203.318 28.5196 210.048 23.5537 217.112C22.8562 218.101 22.4796 219.281 22.4747 220.492C22.4698 221.703 22.8368 222.886 23.5262 223.881C24.2156 224.876 25.194 225.636 26.3292 226.057C27.4644 226.478 28.7015 226.54 29.8731 226.235C51.0261 220.631 69.4221 207.531 81.6369 189.375L51.0963 176.024Z" fill="#3780EF"/>
<g opacity="0.3">
<path d="M49.6055 184.609C48.5014 185.127 47.5116 185.86 46.6938 186.765C46.2904 187.216 46.0283 187.775 45.9401 188.373C45.8519 188.971 45.9415 189.582 46.1978 190.13C47.0605 191.683 49.5192 191.855 50.3172 193.473C51.1153 195.091 49.5839 197.053 48.1604 198.304L43.6095 202.251C42.488 203.222 41.2586 204.559 41.6899 205.983C42.1213 207.406 44.2781 207.837 46.0036 207.643C49.7913 207.181 53.4098 205.805 56.5472 203.633C59.6847 201.462 62.2469 198.559 64.0131 195.177L49.6055 184.609Z" fill="black"/>
</g>
<path d="M153.61 158.274C153.61 158.274 153.61 158.489 153.61 158.727C156.022 171.8 155.468 185.247 151.989 198.077C148.51 210.908 142.194 222.793 133.508 232.857L122.487 245.647L112.285 206.112L153.61 158.274Z" fill="#3780EF"/>
<path d="M153.61 158.274L153.416 158.533L152.812 159.223L150.655 161.876L142.179 171.819C134.911 180.273 124.666 192.244 112.652 206.328V206.112C115.499 217.198 118.648 229.384 121.948 242.153C122.25 243.36 122.573 244.547 122.854 245.647H122.422L128.893 238.098C131.05 235.617 133.207 233.223 135.148 230.743C138.957 226.054 142.288 220.997 145.091 215.645C147.609 210.819 149.66 205.764 151.216 200.547C152.036 198.11 152.532 195.673 153.093 193.365C153.653 191.057 154.02 188.793 154.236 186.636C155.169 179.816 155.292 172.909 154.602 166.06C154.43 163.623 154.063 161.746 153.891 160.517C153.718 159.287 153.675 158.856 153.632 158.576C153.589 158.295 153.632 158.727 153.74 159.05C153.847 159.374 153.891 159.87 153.998 160.495C154.192 161.768 154.581 163.601 154.796 166.038C155.551 172.902 155.478 179.832 154.581 186.679C154.365 188.836 153.891 191.101 153.481 193.451C153.071 195.802 152.424 198.218 151.626 200.677C150.074 205.953 148.015 211.067 145.479 215.947C142.689 221.358 139.35 226.468 135.514 231.196C133.552 233.698 131.395 236.07 129.281 238.572L122.811 246.121L122.509 246.488L122.379 246.013C122.099 244.913 121.797 243.705 121.473 242.519L112.221 206.457V206.349L142.071 171.84L150.698 162.027L152.855 159.438L153.438 158.791L153.61 158.274Z" fill="#263238"/>
<path d="M81.1202 95.7259H80.6457C67.5456 95.2778 54.5118 97.7734 42.5039 103.029C30.4959 108.285 19.8195 116.166 11.2607 126.094L0.476562 138.711L40.5503 142.917L81.1202 95.7259Z" fill="#3780EF"/>
<path d="M81.1181 95.7259L80.924 95.9416L80.3848 96.6102L78.2279 99.1769L69.9026 108.926L40.6561 143.068H40.5482L4.01172 139.272L0.474504 138.906H0L0.301987 138.539L6.77245 131.119C8.92928 128.682 10.9135 126.223 13.0488 123.937C17.1154 119.52 21.6172 115.524 26.4858 112.01C30.8804 108.827 35.5759 106.082 40.5051 103.814C42.7914 102.671 45.0992 101.83 47.2776 100.945C49.456 100.061 51.5912 99.3926 53.7481 98.7886C60.2967 96.9239 67.0455 95.8522 73.8496 95.5965C76.2437 95.4455 78.1632 95.5965 79.371 95.5965H80.8161H81.3122H79.371C78.1201 95.5965 76.2437 95.5965 73.8712 95.7259C67.0905 96.0434 60.3716 97.1656 53.8559 99.069C51.699 99.5866 49.5422 100.406 47.3854 101.226C45.2286 102.045 42.9208 102.951 40.6561 104.094C35.768 106.376 31.1096 109.121 26.7446 112.29C21.9041 115.798 17.4311 119.787 13.3939 124.196C11.237 126.461 9.25274 128.919 7.11749 131.357L0.64702 138.798L0.474504 138.366L4.03325 138.755L40.5482 142.594H40.3541L69.4928 108.969L77.9476 99.2416C78.9397 98.12 79.6946 97.2357 80.2122 96.6318L80.8161 95.9632C81.0318 95.8122 81.0966 95.7259 81.1181 95.7259Z" fill="#263238"/>
<path d="M225.346 1.81763C219.609 -3.14307 196.25 2.59409 164.955 18.9428C146.56 28.5512 129.814 41.0304 115.348 55.9107L23.3164 162.652L51.3551 186.895L67.6607 200.957L95.6994 225.2L179.492 128.294C187.642 118.842 194.864 108.629 201.06 97.7962C207.339 86.9533 212.734 75.6221 217.193 63.9125C229.465 31.0641 231.018 6.71362 225.26 1.7745" fill="#F5F5F5"/>
<path d="M110.215 207.19C110.107 207.298 93.8874 193.603 73.9584 176.628C54.0294 159.654 37.9395 145.807 38.0257 145.699C38.112 145.592 54.396 159.266 74.2819 176.24C94.1678 193.214 110.301 207.083 110.215 207.19Z" fill="#263238"/>
<path d="M107.088 210.145C107.088 210.145 90.782 196.579 70.8529 179.583C50.9239 162.587 34.834 148.762 34.9203 148.654C35.0065 148.546 51.2474 162.22 71.1764 179.216C91.1055 196.212 107.195 210.037 107.088 210.145Z" fill="#263238"/>
<path d="M104.218 213.617C104.111 213.617 87.8913 200.029 67.9623 183.055C48.0333 166.081 31.9434 152.213 32.0296 152.105C32.1159 151.997 48.3568 165.693 68.2858 182.667C88.2149 199.641 104.305 213.51 104.218 213.617Z" fill="#263238"/>
<path d="M101.328 217.069C101.328 217.069 85.0007 203.502 65.0717 186.507C45.1426 169.511 29.0527 155.686 29.139 155.578C29.2253 155.47 45.4662 169.144 65.3952 186.14C85.3242 203.136 101.414 216.961 101.328 217.069Z" fill="#263238"/>
<path d="M98.4374 220.541C98.4374 220.649 82.1102 206.953 62.1812 189.979C42.2521 173.005 26.1622 159.136 26.2701 159.028C26.3779 158.921 42.5757 172.616 62.5047 189.591C82.4338 206.565 98.5237 220.433 98.4374 220.541Z" fill="#263238"/>
<path d="M117.46 127.215L117.115 127.776C116.878 128.143 116.447 128.639 115.95 129.286C114.915 130.602 113.362 132.435 111.443 134.7C107.625 139.207 102.255 145.484 96.3449 152.191C90.4352 158.899 84.9137 165.132 80.9452 169.446L76.2433 174.666L74.9276 176.046C74.7837 176.218 74.6249 176.376 74.4531 176.52C74.5754 176.33 74.7124 176.15 74.8629 175.981L76.0923 174.536L80.6864 169.209L95.9566 151.803L111.249 134.398L115.864 129.113C116.382 128.466 116.835 127.992 117.094 127.647C117.352 127.302 117.439 127.194 117.46 127.215Z" fill="#263238"/>
<path d="M153.61 158.274C153.61 158.382 137.326 144.6 117.462 127.496C97.5975 110.392 81.5508 96.4161 81.6371 96.3082C81.7233 96.2004 97.8995 110.004 117.785 127.108C137.671 144.211 153.74 158.166 153.61 158.274Z" fill="#263238"/>
<path d="M92.9166 167.419C93.1486 167.348 93.3963 167.348 93.6284 167.419C94.2744 167.62 94.8357 168.029 95.2244 168.583C95.5275 168.995 95.7153 169.479 95.7684 169.987C95.8215 170.495 95.738 171.008 95.5264 171.473C95.2837 172.061 94.8651 172.56 94.3281 172.9C93.7911 173.241 93.1619 173.408 92.5267 173.377C91.8914 173.346 91.2812 173.12 90.7796 172.729C90.2779 172.338 89.9094 171.802 89.7245 171.193C89.5593 170.71 89.5261 170.191 89.6285 169.69C89.7309 169.19 89.9651 168.726 90.3068 168.346C90.7401 167.831 91.3317 167.475 91.9892 167.332C92.2214 167.263 92.4687 167.263 92.701 167.332C92.484 167.416 92.2603 167.481 92.0323 167.526C91.4464 167.719 90.9341 168.088 90.5657 168.583C90.2922 168.924 90.1109 169.328 90.0392 169.759C89.9674 170.19 90.0076 170.631 90.1559 171.042C90.3161 171.558 90.6311 172.011 91.058 172.342C91.4849 172.672 92.0031 172.864 92.5424 172.889C93.0817 172.915 93.6158 172.775 94.0725 172.487C94.5291 172.199 94.8861 171.777 95.095 171.279C95.2847 170.883 95.3685 170.444 95.3383 170.006C95.308 169.567 95.1648 169.144 94.9225 168.777C94.5989 168.255 94.1254 167.841 93.5637 167.591C93.2186 167.483 92.9166 167.462 92.9166 167.419Z" fill="#263238"/>
<path d="M111.098 147.123C111.33 147.052 111.578 147.052 111.81 147.123C112.447 147.331 112.999 147.739 113.385 148.287C113.688 148.699 113.876 149.183 113.929 149.691C113.982 150.199 113.898 150.712 113.686 151.177C113.444 151.765 113.025 152.264 112.488 152.605C111.951 152.945 111.322 153.112 110.687 153.081C110.052 153.05 109.441 152.824 108.94 152.433C108.438 152.042 108.07 151.506 107.885 150.897C107.719 150.414 107.686 149.895 107.789 149.394C107.891 148.894 108.125 148.43 108.467 148.05C108.9 147.535 109.492 147.179 110.149 147.036C110.624 147.036 110.883 147.036 110.861 147.036C110.839 147.036 110.624 147.036 110.192 147.23C109.615 147.418 109.11 147.779 108.747 148.266C108.467 148.606 108.279 149.014 108.204 149.449C108.128 149.884 108.167 150.331 108.316 150.746C108.482 151.26 108.8 151.711 109.228 152.039C109.657 152.367 110.175 152.556 110.714 152.582C111.253 152.608 111.787 152.469 112.245 152.183C112.703 151.897 113.063 151.479 113.277 150.983C113.463 150.585 113.543 150.145 113.509 149.707C113.475 149.268 113.328 148.846 113.083 148.481C112.762 147.964 112.297 147.552 111.745 147.295C111.336 147.187 111.077 147.166 111.098 147.123Z" fill="#263238"/>
<g opacity="0.3">
<path d="M41.4531 141.666C41.4531 141.666 68.8663 111.319 81.0739 95.7252C71.8212 100.406 61.339 105.798 53.9411 112.98C46.3495 120.652 41.896 130.882 41.4531 141.666Z" fill="black"/>
</g>
<path d="M24.2009 239.219C22.7876 239.267 21.4497 239.868 20.4755 240.894C19.5014 241.919 18.9689 243.286 18.993 244.7C19.017 246.114 19.5956 247.462 20.6041 248.453C21.6125 249.444 22.9701 250 24.3842 250C25.7984 250 27.156 249.444 28.1645 248.453C29.1729 247.462 29.7515 246.114 29.7755 244.7C29.7995 243.286 29.2672 241.919 28.293 240.894C27.3189 239.868 25.981 239.267 24.5676 239.219" fill="#3780EF"/>
<path d="M179.128 94.497C190.264 85.5554 192.044 69.2786 183.103 58.1417C174.161 47.0047 157.884 45.225 146.747 54.1665C135.61 63.1081 133.831 79.385 142.772 90.5219C151.714 101.659 167.991 103.439 179.128 94.497Z" fill="white"/>
<path d="M188.637 77.6083C188.697 75.4917 188.618 73.3734 188.399 71.2672C187.643 65.5181 184.959 60.1956 180.786 56.1695C177.955 53.4017 174.512 51.3401 170.735 50.152C166.41 48.7966 161.801 48.6179 157.384 49.6343C154.998 50.1584 152.707 51.0458 150.59 52.2656C148.366 53.5027 146.35 55.0821 144.616 56.9459C140.914 60.8502 138.555 65.8348 137.884 71.1731C137.213 76.5115 138.264 81.9246 140.884 86.6238C143.315 91.01 146.993 94.5756 151.453 96.8687C155.225 98.8102 159.423 99.7778 163.664 99.6836C167.906 99.5894 172.056 98.4365 175.739 96.3295C180.757 93.4548 184.667 88.9824 186.846 83.6258C187.583 81.6421 188.181 79.6099 188.637 77.5436C188.633 78.0943 188.575 78.6433 188.464 79.1828C188.39 79.8556 188.253 80.5199 188.054 81.167C187.861 82.0646 187.594 82.9446 187.256 83.7984C185.494 88.4804 182.417 92.5541 178.396 95.5306C174.375 98.5071 169.581 100.26 164.588 100.578C159.884 100.888 155.184 99.9269 150.979 97.7962C148.711 96.6763 146.624 95.2222 144.788 93.4825C142.846 91.6708 141.208 89.559 139.935 87.2277C137.176 82.3315 136.063 76.6775 136.762 71.1006C137.461 65.5237 139.935 60.3194 143.818 56.2558C145.621 54.304 147.734 52.6642 150.073 51.4029C152.281 50.1479 154.666 49.2318 157.147 48.6853C161.745 47.664 166.532 47.8874 171.015 49.3324C174.907 50.5996 178.446 52.7644 181.346 55.6519C185.56 59.8259 188.204 65.3264 188.831 71.2241C188.961 72.1309 189.012 73.0475 188.982 73.9633C189.032 74.6309 189.032 75.3015 188.982 75.9691C188.926 76.5264 188.811 77.076 188.637 77.6083Z" fill="#263238"/>
<path d="M225.346 1.81763C219.609 -3.14307 196.251 2.59409 164.955 18.9428L217.172 63.9557C229.444 31.1073 230.997 6.75675 225.238 1.81763" fill="#3780EF"/>
<path d="M225.347 1.81759C225.347 1.81759 225.67 2.11954 226.274 2.78815C226.989 3.89656 227.52 5.11275 227.848 6.39006C228.843 11.3612 229.01 16.4622 228.345 21.4878C227.029 34.666 222.413 53.5598 212.902 75.5809C207.58 87.592 201.26 99.1355 194.008 110.09C189.881 116.181 185.424 122.042 180.657 127.647L165.365 145.44L96.347 225.523L95.9803 225.933L95.5705 225.566L59.3574 194.314L23.0797 163.019L22.6699 162.673L23.0365 162.242L92.0549 82.2239L107.39 64.4948L114.701 56.0185C117.203 53.2578 119.813 50.7775 122.444 48.3834C132.159 39.5439 142.688 31.6435 153.891 24.7878C163.138 19.2931 172.727 14.3944 182.598 10.1214C189.974 6.8406 197.588 4.12245 205.374 1.99014C210.266 0.515504 215.366 -0.147527 220.472 0.0274244C221.199 0.116302 221.92 0.253205 222.629 0.437226C223.16 0.585594 223.679 0.773035 224.182 0.998004C224.937 1.49407 225.282 1.77446 225.282 1.77446L224.139 1.10584C223.635 0.889204 223.116 0.709007 222.586 0.56663C221.96 0.394084 221.205 0.372525 220.429 0.221547C215.372 0.159431 210.336 0.887133 205.504 2.37837C197.763 4.5832 190.194 7.35131 182.857 10.6606C173.049 14.9903 163.519 19.9246 154.322 25.4348C143.186 32.299 132.722 40.1992 123.07 49.0304C120.482 51.4245 117.85 53.9264 115.435 56.644L108.123 65.1203L92.8314 82.8925L23.813 162.997V162.199L60.0908 193.473L96.3685 224.747H95.5705L164.589 144.75L179.902 127C184.667 121.437 189.117 115.611 193.231 109.551C200.492 98.6698 206.827 87.1983 212.168 75.2574C221.766 53.3441 226.468 34.5366 227.913 21.3368C228.614 16.3201 228.512 11.2238 227.611 6.23908C227.315 4.96879 226.82 3.75321 226.145 2.63718C225.627 2.14111 225.347 1.81759 225.347 1.81759Z" fill="#263238"/>
<path d="M165.062 93.6121C164.618 91.9221 164.386 90.1832 164.372 88.4357C164.113 85.2436 163.919 80.8006 163.811 75.9046C163.703 71.0086 163.66 66.9753 163.595 63.3519C163.416 61.6239 163.416 59.8819 163.595 58.1539C164.013 59.8419 164.244 61.5705 164.286 63.3087C164.544 66.5224 164.739 70.9655 164.825 75.8615C164.911 80.7574 164.997 84.7907 165.062 88.4142C165.241 90.1422 165.241 91.884 165.062 93.6121Z" fill="#263238"/>
<path d="M159.284 88.6731C158.521 84.9389 158.123 81.1393 158.097 77.3282C157.723 73.5342 157.723 69.7126 158.097 65.9186C158.87 69.6516 159.275 73.4514 159.305 77.2635C159.679 81.0578 159.672 84.8801 159.284 88.6731Z" fill="#263238"/>
</svg>
