<svg width="530" height="570" viewBox="0 0 530 570" fill="none" xmlns="http://www.w3.org/2000/svg">
<path d="M0.000671387 569.674C0.000671387 569.856 118.531 569.989 264.718 569.989C410.905 569.989 529.436 569.856 529.436 569.674C529.436 569.493 410.978 569.36 264.718 569.36C118.459 569.36 0.000671387 569.505 0.000671387 569.674Z" fill="#263238"/>
<path d="M195.433 132.323C195.433 132.323 157.068 214.518 185.945 291.081C214.822 367.643 320.89 477.386 332.651 483.237C332.651 483.237 305.442 440.483 355.122 440.834C404.802 441.184 429.751 429.085 435.093 411.666C440.436 394.248 410.918 337.993 438.067 324.479C465.216 310.965 498.215 315.014 520.371 296.266C520.371 296.266 468.697 291.963 430.548 288.071C390.502 283.986 270.159 200.17 260.44 138.512" fill="#3780EF"/>
<g opacity="0.4">
<path d="M195.433 132.323C195.433 132.323 157.068 214.518 185.945 291.081C214.822 367.643 320.89 477.386 332.651 483.237C332.651 483.237 305.442 440.483 355.122 440.834C404.802 441.184 429.751 429.085 435.093 411.666C440.436 394.248 410.918 337.993 438.067 324.479C465.216 310.965 498.215 315.014 520.371 296.266C520.371 296.266 468.697 291.963 430.548 288.071C390.502 283.986 270.159 200.17 260.44 138.512" fill="black"/>
</g>
<path d="M335.031 273.856C335.243 274.043 335.47 274.212 335.708 274.364L337.727 275.73C339.467 276.938 342.042 278.558 345.257 280.565C351.688 284.505 360.79 289.642 371.173 294.622C380.041 298.873 389.119 302.674 398.37 306.009C401.924 307.278 404.813 308.257 406.831 308.874L409.152 309.587C409.418 309.685 409.693 309.754 409.974 309.792C409.727 309.659 409.468 309.55 409.201 309.466L406.916 308.644C404.922 307.955 402.081 306.915 398.527 305.586C391.468 302.951 381.822 299.022 371.439 294.054C361.056 289.086 351.978 284.022 345.487 280.178C342.248 278.268 339.637 276.672 337.86 275.56L335.781 274.291C335.547 274.12 335.296 273.974 335.031 273.856Z" fill="#263238"/>
<path d="M302.384 319.426C302.644 319.661 302.918 319.879 303.206 320.079L305.623 321.844C307.738 323.354 310.76 325.579 314.459 328.371C321.881 333.931 331.95 341.861 342.611 351.168C353.272 360.475 362.483 369.396 368.998 375.996C372.25 379.296 374.861 382.04 376.65 383.877L378.717 386.028C378.955 386.286 379.209 386.528 379.478 386.754C379.273 386.47 379.051 386.2 378.813 385.944L376.831 383.708C375.09 381.774 372.528 379.03 369.312 375.694C362.882 368.997 353.695 359.98 343.034 350.697C332.373 341.413 322.219 333.484 314.725 328.008C310.99 325.264 307.92 323.101 305.768 321.638L303.351 319.97C303.05 319.752 302.726 319.57 302.384 319.426Z" fill="#263238"/>
<path d="M306.796 332.892C306.898 333.059 307.02 333.213 307.159 333.351L308.283 334.56C309.274 335.612 310.7 337.098 312.562 338.899C316.188 342.526 321.386 347.361 327.345 352.498C333.304 357.635 338.9 361.975 343.059 365.045C345.126 366.568 346.818 367.789 348.002 368.599L349.368 369.529C349.524 369.647 349.695 369.745 349.876 369.819C349.876 369.819 349.731 369.662 349.441 369.421L348.147 368.405L343.312 364.682C339.263 361.539 333.715 357.115 327.78 352.014C321.845 346.914 316.611 342.115 312.888 338.585L308.488 334.391L307.279 333.255C306.965 333.001 306.82 332.88 306.796 332.892Z" fill="#263238"/>
<path d="M313.263 526.945L319.452 554.94L330.73 575.658C330.924 576.011 331.043 576.401 331.08 576.802C331.116 577.203 331.07 577.608 330.942 577.99C330.815 578.373 330.611 578.725 330.341 579.025C330.071 579.324 329.743 579.565 329.376 579.731C328.951 579.927 328.486 580.018 328.019 579.997C327.552 579.976 327.097 579.844 326.692 579.611C321.446 576.577 302.191 565.323 301.852 563.256C301.466 560.839 293.391 534.161 293.391 534.161L313.263 526.945Z" fill="#263238"/>
<path d="M300.981 560.5C301.3 560.821 301.657 561.101 302.045 561.334L305.079 563.389L315.123 570.122L325.156 576.867C326.365 577.652 327.38 578.329 328.214 578.885C328.588 579.157 328.994 579.38 329.423 579.55C329.112 579.224 328.768 578.932 328.395 578.68C327.706 578.148 326.703 577.411 325.446 576.492C322.944 574.679 319.402 572.225 315.51 569.59C311.618 566.955 307.992 564.646 305.357 563.027C304.039 562.205 302.939 561.552 302.214 561.129C301.829 560.872 301.415 560.661 300.981 560.5Z" fill="#455A64"/>
<path d="M189.148 533.642L190.828 555.956C190.828 555.956 168.659 565.166 168.562 569.324H212.078L210.869 532.687L189.148 533.642Z" fill="#263238"/>
<path d="M169.928 567.886C170.483 567.948 171.042 567.948 171.596 567.886L176.141 567.741C179.973 567.62 185.267 567.451 191.13 567.378C196.992 567.306 202.275 567.306 206.119 567.378H210.663C211.22 567.415 211.78 567.391 212.332 567.306C211.782 567.195 211.224 567.138 210.663 567.136C209.6 567.064 208.04 566.991 206.119 566.919C202.287 566.786 196.98 566.701 191.118 566.786C185.255 566.87 179.949 567.088 176.117 567.33C174.207 567.451 172.66 567.572 171.584 567.668C171.028 567.698 170.474 567.771 169.928 567.886Z" fill="#455A64"/>
<path d="M286.585 308.535L325.011 545.826L289.716 547.953L235.249 308.535H286.585Z" fill="#3780EF"/>
<path d="M234.608 298.188L216.876 547.953H183.671V283.502L234.608 298.188Z" fill="#3780EF"/>
<path d="M195.687 532.336C195.869 532.336 198.54 482.886 201.671 421.868C204.801 360.85 207.207 311.364 207.026 311.352C206.844 311.339 204.173 360.802 201.042 421.832C197.912 482.862 195.518 532.336 195.687 532.336Z" fill="#263238"/>
<path d="M183.673 532.336L183.927 532.421C184.144 532.421 184.483 532.542 184.906 532.602C185.764 532.747 187.021 532.917 188.532 533.11C191.614 533.485 195.893 533.932 200.62 534.319C210.06 535.177 217.772 535.527 217.76 535.092C217.76 535.092 217.639 535.092 217.421 535.092H216.418L212.792 534.802L200.704 533.751L188.617 532.687C185.546 532.457 183.54 532.312 183.673 532.336Z" fill="#263238"/>
<path d="M265.662 314.12C265.662 314.12 265.662 314.313 265.723 314.688C265.783 315.063 265.856 315.619 265.952 316.32C266.17 317.782 266.496 319.886 266.907 322.581C267.741 328.021 268.998 335.877 270.606 345.548C273.809 364.96 278.475 391.746 284.132 421.24C289.789 450.733 295.398 477.338 299.604 496.569C301.707 506.179 303.46 513.951 304.693 519.306C305.309 521.965 305.793 524.044 306.131 525.483L306.518 527.078C306.615 527.441 306.675 527.622 306.675 527.622C306.675 527.622 306.675 527.429 306.579 527.066C306.482 526.704 306.397 526.136 306.252 525.447C305.95 524.008 305.503 521.929 304.935 519.258C303.726 513.843 302.106 506.07 300.039 496.473C295.942 477.229 290.369 450.613 284.748 421.119C279.128 391.625 274.389 364.972 271.041 345.511C269.397 335.841 268.068 327.996 267.149 322.545C266.69 319.849 266.327 317.71 266.073 316.296C265.952 315.607 265.856 315.087 265.783 314.676C265.711 314.265 265.662 314.12 265.662 314.12Z" fill="#263238"/>
<path d="M286.162 532.336C286.638 532.412 287.121 532.432 287.601 532.397L291.505 532.3L304.39 531.78L317.264 531.176L321.168 530.994C321.645 530.993 322.121 530.965 322.594 530.91C320.825 530.663 319.034 530.603 317.252 530.728C313.952 530.728 309.395 530.934 304.366 531.152C299.338 531.369 294.781 531.635 291.493 531.853C289.837 531.961 288.507 532.058 287.589 532.143C287.108 532.159 286.63 532.223 286.162 532.336Z" fill="#263238"/>
<g opacity="0.3">
<path d="M288.448 320.079L287.686 315.365L236.169 312.451L238.115 321.046L288.448 320.079Z" fill="black"/>
</g>
<g opacity="0.3">
<path d="M233.146 321.045L234.609 312.415L183.672 309.901L183.684 322.109L233.146 321.045Z" fill="black"/>
</g>
<path d="M283.274 133.109L247.313 125.107L217.095 126.352L190.744 134.728L205.732 209.889L263.1 214.978L283.274 133.109Z" fill="#263238"/>
<path d="M252.777 126.352L290.611 134.728L271.694 236.058C271.694 236.058 288.616 277.156 290.611 315.365L234.609 312.416C234.609 312.416 230.753 262.059 232.071 242.67C233.388 223.282 234.271 189.364 234.271 189.364L252.777 126.352Z" fill="#3780EF"/>
<path d="M360.96 184.493C360.96 184.493 348.123 171.474 334.73 164.476C324.854 159.314 305.514 152.835 297.827 144.519C295.016 141.566 292.58 138.278 290.574 134.728L281.641 182.45L319.608 188.494C319.608 188.494 313.964 191.576 317.481 193.776L293.693 221.577L309.999 252.328C309.999 252.328 363.16 206.528 360.96 184.493Z" fill="#3780EF"/>
<path d="M217.094 126.352C212.496 126.926 207.953 127.872 203.508 129.18C195.457 131.84 181.847 134.728 181.847 134.728L201.187 237.388C201.187 237.388 174.897 269.879 181.847 309.635C181.847 309.635 218.17 312.5 234.609 312.416L234.827 187.503C234.827 187.503 221.059 169.976 219.294 152.787C217.529 135.599 217.094 126.352 217.094 126.352Z" fill="#3780EF"/>
<path d="M181.846 134.728C181.846 134.728 160.173 157.175 148.243 165.648C136.312 174.122 121.3 186.801 121.3 193.546C121.54 197.767 122.4 201.929 123.85 205.9C124.684 208.394 125.908 210.739 127.476 212.85C132.952 220.103 147.457 239.032 157.042 248.013L181.218 222.544L158.251 197.16C158.251 197.16 189.074 184.444 190.597 180.987C192.12 177.53 181.846 134.728 181.846 134.728Z" fill="#3780EF"/>
<path d="M235.056 201.041C235.257 200.894 235.443 200.728 235.612 200.545L237.123 199.034L242.672 193.329L261.48 173.686L261.589 173.566V173.396L259.098 162.953C258.724 161.393 258.361 159.858 257.999 158.335L257.696 158.722H270.05L269.929 158.335C267.004 149.475 264.502 141.884 262.676 136.445C261.782 133.798 261.069 131.682 260.549 130.159C260.307 129.47 260.114 128.95 259.957 128.503C259.9 128.306 259.824 128.116 259.727 127.935C259.759 128.136 259.807 128.334 259.872 128.527C259.993 128.962 260.162 129.519 260.368 130.22L262.302 136.517C264.054 141.981 266.484 149.596 269.312 158.48L269.59 158.094H257.612H257.213L257.297 158.48C257.66 160.003 258.035 161.538 258.397 163.098C259.268 166.724 260.102 170.205 260.9 173.541L260.984 173.263L242.333 193.063L236.918 198.901L235.479 200.497C235.322 200.665 235.18 200.847 235.056 201.041Z" fill="#263238"/>
<path d="M234.609 312.415C234.778 312.415 235.008 284.239 235.117 249.487C235.226 214.736 235.177 186.547 235.008 186.535C234.839 186.523 234.609 214.711 234.488 249.487C234.367 284.263 234.428 312.415 234.609 312.415Z" fill="#263238"/>
<path d="M211.292 127.27C211.211 127.489 211.155 127.716 211.123 127.947C211.038 128.455 210.917 129.156 210.76 129.93C210.458 131.731 210.035 134.233 209.551 137.339L205.466 162.638L205.405 163.049H205.816L212.489 162.155L212.162 161.708L210.796 164.488C209.878 166.361 208.971 168.211 208.101 169.964L208.016 170.145L208.137 170.29L225.712 192.241L230.982 198.732L232.433 200.472C232.585 200.684 232.764 200.875 232.965 201.041C232.832 200.816 232.682 200.602 232.518 200.4L231.164 198.599L226.039 191.987L208.596 169.843V170.181C209.455 168.428 210.361 166.555 211.292 164.705L212.742 161.901L213.008 161.369L212.416 161.442L205.744 162.36L206.082 162.711C207.629 152.594 208.983 143.758 209.95 137.327C210.397 134.209 210.76 131.694 211.026 129.893C211.131 129.087 211.215 128.423 211.28 127.899C211.301 127.69 211.305 127.48 211.292 127.27Z" fill="#263238"/>
<path d="M239.866 271.584C241.148 270.024 243.65 269.166 244.859 270.738C245.47 271.239 245.913 271.915 246.129 272.676C246.345 273.436 246.323 274.244 246.067 274.992C245.861 275.449 245.565 275.859 245.198 276.199C244.83 276.54 244.398 276.803 243.928 276.974C243.457 277.145 242.957 277.221 242.457 277.196C241.956 277.171 241.466 277.047 241.015 276.83C240.576 276.578 240.195 276.237 239.896 275.829C239.598 275.421 239.387 274.955 239.279 274.461C239.171 273.967 239.167 273.456 239.268 272.96C239.37 272.465 239.573 271.996 239.866 271.584Z" fill="#263238"/>
<path d="M239.189 238.959C240.471 237.388 242.973 236.481 244.182 238.113C244.79 238.617 245.231 239.293 245.447 240.053C245.662 240.813 245.643 241.62 245.39 242.368C245.185 242.825 244.89 243.237 244.523 243.578C244.156 243.919 243.724 244.184 243.252 244.355C242.781 244.526 242.281 244.601 241.78 244.576C241.279 244.55 240.789 244.424 240.338 244.205C239.899 243.953 239.518 243.613 239.219 243.205C238.92 242.797 238.71 242.331 238.602 241.837C238.494 241.343 238.49 240.831 238.591 240.336C238.693 239.84 238.896 239.372 239.189 238.959Z" fill="#263238"/>
<path d="M152.86 236.264C154.141 234.704 156.643 233.846 157.852 235.417C158.461 235.92 158.904 236.597 159.119 237.357C159.335 238.117 159.315 238.924 159.061 239.672C158.855 240.13 158.56 240.541 158.193 240.882C157.826 241.224 157.394 241.488 156.923 241.659C156.452 241.83 155.951 241.905 155.45 241.88C154.95 241.854 154.459 241.728 154.008 241.51C153.57 241.258 153.189 240.917 152.89 240.509C152.591 240.101 152.381 239.635 152.272 239.141C152.164 238.647 152.161 238.136 152.262 237.64C152.363 237.145 152.567 236.676 152.86 236.264Z" fill="#263238"/>
<path d="M310.277 239.261C311.559 237.69 314.061 236.783 315.269 238.415C315.879 238.918 316.321 239.594 316.537 240.354C316.753 241.114 316.732 241.922 316.478 242.67C316.273 243.127 315.978 243.539 315.611 243.88C315.243 244.221 314.811 244.486 314.34 244.657C313.869 244.828 313.368 244.903 312.868 244.878C312.367 244.852 311.877 244.726 311.426 244.507C310.987 244.255 310.606 243.915 310.307 243.507C310.008 243.099 309.798 242.633 309.69 242.139C309.582 241.645 309.578 241.133 309.679 240.638C309.78 240.142 309.984 239.674 310.277 239.261Z" fill="#263238"/>
<path d="M317.178 194.223C320.202 192.819 323.429 191.905 326.74 191.516C330.064 191.336 333.397 191.679 336.615 192.531C335.757 192.027 334.822 191.667 333.847 191.467C329.14 190.263 324.163 190.689 319.729 192.676C318.798 193.045 317.936 193.568 317.178 194.223Z" fill="#263238"/>
<path d="M336.615 188.494C335.878 188.006 335.059 187.654 334.198 187.454C332.132 186.835 329.984 186.53 327.828 186.548C325.666 186.567 323.52 186.905 321.457 187.551C320.6 187.781 319.784 188.144 319.04 188.627C321.91 187.8 324.868 187.313 327.852 187.176C330.816 187.258 333.758 187.701 336.615 188.494Z" fill="#263238"/>
<path d="M280.554 188.615C280.774 187.955 280.948 187.28 281.074 186.596L282.283 181.06C283.419 176.31 284.942 169.915 286.622 162.844C288.302 155.773 289.656 149.233 290.406 144.483C290.792 142.065 291.058 140.192 291.191 138.862C291.303 138.175 291.356 137.479 291.348 136.783C291.166 137.454 291.033 138.136 290.95 138.826C290.744 140.144 290.406 142.053 289.97 144.41C289.112 149.125 287.698 155.591 286.006 162.699C284.313 169.806 282.803 176.273 281.848 180.975C281.364 183.32 281.001 185.23 280.796 186.548C280.66 187.229 280.579 187.92 280.554 188.615Z" fill="#263238"/>
<path d="M183.189 137.049C183.215 137.765 183.304 138.476 183.455 139.176C183.684 140.639 183.999 142.573 184.386 144.93C185.195 149.874 186.283 156.546 187.48 163.908C188.677 171.269 189.897 178.014 190.768 182.849C191.227 185.266 191.614 187.225 191.904 188.578C192.013 189.285 192.183 189.98 192.412 190.657C192.387 189.932 192.314 189.209 192.194 188.494C191.952 187.031 191.638 185.097 191.263 182.74C190.453 177.784 189.353 171.124 188.157 163.763C186.96 156.401 185.739 149.656 184.869 144.809C184.41 142.392 184.023 140.446 183.745 139.092C183.606 138.399 183.42 137.717 183.189 137.049Z" fill="#263238"/>
<path d="M141.958 184.698C141.958 184.807 143.3 184.698 145.427 184.807C148.192 184.831 150.868 185.78 153.031 187.503C155.005 189.439 156.467 191.836 157.285 194.477C157.623 195.588 158.027 196.678 158.494 197.741C158.361 196.578 158.093 195.434 157.696 194.332C156.967 191.551 155.492 189.022 153.429 187.019C152.22 185.976 150.784 185.231 149.235 184.843C147.991 184.523 146.712 184.361 145.427 184.36C144.571 184.351 143.715 184.4 142.865 184.505C142.553 184.51 142.245 184.576 141.958 184.698Z" fill="#263238"/>
<path d="M136.191 190.343C136.191 190.452 137.521 190.343 139.648 190.488C145.205 190.811 150.577 192.6 155.217 195.674C157.006 196.882 158.009 197.704 158.082 197.62C158.154 197.535 157.888 197.342 157.453 196.931C156.828 196.345 156.166 195.8 155.471 195.299C150.865 191.965 145.345 190.13 139.66 190.041C138.809 190.027 137.957 190.067 137.11 190.162C136.795 190.164 136.484 190.226 136.191 190.343Z" fill="#263238"/>
<path d="M262.641 238.959C264.043 238.609 265.41 238.131 266.726 237.533C268.11 237.126 269.454 236.592 270.739 235.937C269.277 235.99 267.839 236.331 266.509 236.941C265.102 237.36 263.789 238.045 262.641 238.959Z" fill="#263238"/>
<path d="M261.092 226.812C260.996 226.957 263.824 228.891 267.003 231.647C270.182 234.403 272.527 236.893 272.66 236.76C271.192 234.649 269.425 232.764 267.414 231.163C265.533 229.409 263.403 227.942 261.092 226.812Z" fill="#263238"/>
<path d="M181.846 309.635C181.846 309.816 206.179 311.231 236.24 312.814C266.302 314.398 290.634 315.546 290.634 315.365C290.634 315.183 266.302 313.769 236.24 312.186C206.179 310.602 181.858 309.466 181.846 309.635Z" fill="#263238"/>
<g opacity="0.3">
<path d="M159.412 196.508C160.173 194.172 160.171 191.656 159.406 189.322C158.641 186.988 157.153 184.958 155.158 183.526C154.337 182.857 153.286 182.54 152.232 182.643C151.977 182.681 151.732 182.771 151.514 182.91C151.296 183.049 151.111 183.232 150.969 183.448C150.827 183.664 150.733 183.908 150.692 184.163C150.652 184.418 150.666 184.679 150.734 184.928C151.088 185.494 151.601 185.943 152.208 186.221C154.045 187.477 155.433 189.285 156.173 191.383C156.906 193.466 157.413 195.622 157.684 197.813" fill="black"/>
</g>
<g opacity="0.3">
<path d="M269.64 158.383C269.423 159.036 265.095 159.532 264.273 161.321C263.638 163.194 263.638 165.225 264.273 167.099C264.9 168.967 265.198 170.93 265.156 172.901C264.793 176.406 261.916 179.053 259.233 181.362C251.738 187.756 242.612 194.658 235.058 201.065C241.754 193.087 250.481 184.867 257.855 177.615C259.022 176.623 259.955 175.384 260.587 173.988C261.023 172.094 260.906 170.113 260.248 168.283C259.62 165.809 258.983 163.331 258.338 160.849C258.181 160.209 257.806 159.133 257.722 158.782C258.616 158.626 259.522 158.549 260.429 158.553C263.494 158.319 266.572 158.295 269.64 158.48" fill="black"/>
</g>
<path d="M311.268 242.174C311.181 241.829 311.051 241.496 310.881 241.183C310.591 240.567 310.143 239.684 309.563 238.609C308.02 235.819 306.283 233.141 304.366 230.595C302.457 228.032 300.369 225.608 298.116 223.342C297.246 222.484 296.521 221.807 296.001 221.36C295.481 220.912 295.191 220.683 295.155 220.719C295.979 221.746 296.858 222.726 297.79 223.656C299.434 225.445 301.634 227.972 303.834 230.909C306.034 233.846 307.883 236.699 309.14 238.766C309.78 239.944 310.491 241.082 311.268 242.174Z" fill="#263238"/>
<path d="M302.312 212.234C302.239 212.318 303.63 213.66 305.709 215.981C311.141 222.034 315.539 228.939 318.727 236.421C319.936 239.286 320.588 241.111 320.685 241.087C320.621 240.634 320.512 240.188 320.359 239.757C320.117 238.911 319.706 237.714 319.15 236.252C316.16 228.616 311.709 221.636 306.047 215.703C304.959 214.567 304.053 213.696 303.388 213.116C303.059 212.787 302.699 212.492 302.312 212.234Z" fill="#263238"/>
<path d="M146.516 236.675C146.875 236.383 147.2 236.051 147.483 235.684L149.985 232.904C152.112 230.571 155.122 227.392 158.531 223.983C161.939 220.574 165.13 217.577 167.475 215.461L170.268 212.959C170.634 212.676 170.967 212.352 171.259 211.992C170.844 212.199 170.458 212.459 170.11 212.766C169.397 213.298 168.394 214.095 167.185 215.123C164.768 217.166 161.516 220.127 158.095 223.584C154.675 227.041 151.701 230.232 149.634 232.662C148.607 233.871 147.809 234.874 147.217 235.575C146.942 235.914 146.707 236.283 146.516 236.675Z" fill="#263238"/>
<path d="M297.138 227.996L289.221 232.263L271.658 237.243C271.658 237.243 275.284 261.273 277.569 263.328C279.853 265.383 305.515 243.795 305.515 243.795L297.138 227.996Z" fill="#FFBE9D"/>
<path d="M177.411 226.557L183.129 231.006L199.604 238.85C199.604 238.85 191.989 261.926 189.426 263.569C186.864 265.213 165.13 239.66 165.13 239.66L177.411 226.557Z" fill="#FFBE9D"/>
<path d="M258.519 53.113C258.748 59.3019 266.98 63.049 266.883 69.2378C266.883 71.885 265.191 74.2783 264.864 76.9134C264.429 80.4551 266.412 83.7912 267.149 87.2845C268.648 94.5371 264.466 102.08 258.253 106.02C252.04 109.961 244.255 110.71 236.966 109.719" fill="#263238"/>
<path d="M208.74 51.6382C208.982 54.9623 206.794 57.9237 204.582 60.4138C202.37 62.9038 199.917 65.5026 199.445 68.8267C198.599 74.665 204.28 80.0802 203.132 85.8701C202.503 88.9646 199.965 91.4546 199.506 94.5853C199.046 97.7159 200.714 100.629 202.697 102.877C204.679 105.126 207.036 104.836 208.813 107.326C210.881 110.12 213.507 112.454 216.525 114.179C222.931 117.697 230.619 112.62 233.713 111.762" fill="#263238"/>
<path d="M259.763 56.7395C259.848 53.7297 257.068 51.3968 254.263 50.2968C251.459 49.1969 248.341 48.7859 245.802 47.0936C243.59 45.6069 242.103 43.286 240.23 41.3883C237.92 39.0491 235.031 37.3653 231.857 36.5093C228.684 35.6533 225.34 35.6558 222.167 36.5165C218.995 37.3773 216.108 39.0653 213.802 41.408C211.496 43.7507 209.854 46.6639 209.044 49.8496C207.968 54.1286 208.705 59.2054 212.09 62.0459C216.006 65.3579 221.82 64.6206 226.849 63.5931C231.877 62.5657 237.607 61.5745 241.753 64.5239C244.279 66.3128 245.73 69.2018 247.277 71.8852C248.824 74.5686 250.77 77.3004 253.695 78.3037C256.62 79.3069 260.585 77.5784 260.706 74.484" fill="#263238"/>
<path d="M247.893 57.3321C249.148 57.468 250.306 58.07 251.139 59.019C251.972 59.9681 252.418 61.195 252.389 62.4572L249.38 130.474C249.259 138.5 237.51 143.021 228.903 142.815C220.224 142.622 219.934 138.355 219.838 130.728C219.656 117.951 219.668 113.164 219.656 113.237C219.644 113.31 208.693 111.388 206.445 97.0639C205.333 89.9322 205.719 78.2556 206.336 68.7065C206.892 60.1243 212.609 49.596 221.167 50.5147L247.893 57.3321Z" fill="#FFBE9D"/>
<path d="M210.881 76.9015C210.874 77.3794 211.055 77.8409 211.385 78.1867C211.715 78.5325 212.168 78.7351 212.646 78.7509C212.879 78.7706 213.113 78.7435 213.336 78.6711C213.559 78.5987 213.764 78.4824 213.941 78.3292C214.118 78.176 214.262 77.9889 214.366 77.779C214.469 77.5691 214.53 77.3406 214.543 77.107C214.55 76.6217 214.364 76.1536 214.027 75.8049C213.689 75.4561 213.227 75.255 212.742 75.2455C212.511 75.2308 212.279 75.2621 212.06 75.3375C211.841 75.413 211.639 75.5311 211.466 75.6851C211.293 75.8391 211.152 76.0259 211.052 76.2347C210.951 76.4435 210.893 76.6701 210.881 76.9015Z" fill="#263238"/>
<path d="M208.849 74.7981C209.079 75.0278 210.481 74.0003 212.476 74.0124C214.47 74.0245 215.896 75.0157 216.102 74.7739C216.307 74.5322 215.981 74.23 215.34 73.7707C214.491 73.175 213.477 72.8582 212.439 72.8641C211.412 72.8628 210.41 73.1842 209.575 73.7828C208.946 74.2542 208.741 74.6893 208.849 74.7981Z" fill="#263238"/>
<path d="M230.064 76.9017C230.058 77.3797 230.239 77.8411 230.569 78.1869C230.899 78.5328 231.351 78.7353 231.829 78.7511C232.062 78.7709 232.297 78.7437 232.52 78.6713C232.742 78.5989 232.948 78.4827 233.125 78.3294C233.302 78.1762 233.446 77.9891 233.549 77.7792C233.653 77.5693 233.713 77.3408 233.727 77.1072C233.734 76.6281 233.553 76.1653 233.223 75.8175C232.893 75.4698 232.441 75.2646 231.962 75.2457C231.728 75.226 231.492 75.2535 231.269 75.3266C231.046 75.3998 230.839 75.5171 230.662 75.6716C230.485 75.8261 230.341 76.0146 230.238 76.2259C230.136 76.4372 230.076 76.6671 230.064 76.9017Z" fill="#263238"/>
<path d="M228.286 75.2094C228.516 75.4391 229.906 74.4237 231.913 74.4237C233.919 74.4237 235.346 75.427 235.539 75.1852C235.732 74.9435 235.418 74.6534 234.79 74.182C233.936 73.5875 232.917 73.2747 231.877 73.2875C230.85 73.2778 229.846 73.5953 229.012 74.1941C228.383 74.6655 228.178 75.1006 228.286 75.2094Z" fill="#263238"/>
<path d="M221.084 89.8473C220.039 89.5222 218.96 89.3233 217.868 89.255C217.361 89.255 216.889 89.1099 216.805 88.7594C216.764 88.2371 216.882 87.7146 217.143 87.2605C217.627 86.0518 218.122 84.7705 218.642 83.4288C220.733 77.9531 222.268 73.4686 222.015 73.384C221.761 73.2994 219.923 77.663 217.844 83.1266C217.349 84.4804 216.865 85.7617 216.406 86.9946C216.087 87.6036 215.993 88.3055 216.14 88.977C216.21 89.1577 216.322 89.319 216.467 89.4474C216.612 89.5757 216.786 89.6672 216.974 89.7143C217.25 89.791 217.534 89.8316 217.82 89.8352C218.903 89.9721 219.999 89.9762 221.084 89.8473Z" fill="#263238"/>
<path d="M219.657 113.237C226.402 113.353 233.047 111.596 238.852 108.16C238.695 108.16 233.57 118.12 219.85 116.621L219.657 113.237Z" fill="#EB996E"/>
<path d="M226.898 91.2253C226.572 91.2253 226.56 93.3527 224.723 94.8515C222.885 96.3504 220.601 96.0603 220.589 96.4229C220.576 96.7856 221.096 96.846 222.051 96.8702C223.31 96.8903 224.536 96.4618 225.508 95.6614C226.446 94.9002 227.049 93.8028 227.188 92.6033C227.249 91.7934 227.043 91.2132 226.898 91.2253Z" fill="#263238"/>
<path d="M227.405 71.7403C227.599 72.2843 229.569 72.0304 231.89 72.3084C234.211 72.5865 236.084 73.2392 236.386 72.7557C236.531 72.526 236.205 72.0183 235.443 71.5469C234.439 70.9011 233.3 70.4954 232.113 70.3612C230.927 70.2271 229.725 70.3681 228.602 70.7733C227.744 71.0634 227.321 71.4865 227.405 71.7403Z" fill="#263238"/>
<path d="M209.6 69.0686C209.939 69.528 211.305 69.0686 212.937 69.0686C214.568 69.0686 215.971 69.3708 216.285 68.9115C216.43 68.6818 216.212 68.2225 215.608 67.7994C214.795 67.2872 213.849 67.0285 212.888 67.0565C211.928 67.0845 210.998 67.3978 210.217 67.9566C209.637 68.3917 209.443 68.8269 209.6 69.0686Z" fill="#263238"/>
<path d="M253.95 105.247C250.009 106.045 249.659 104.038 246.697 101.306C245.238 99.9248 244.12 98.2226 243.432 96.3345C242.744 94.4465 242.505 92.4242 242.733 90.4277C243.18 86.9102 245.078 83.3323 243.857 79.9961C242.249 75.5962 236.072 74.2424 234.44 69.8547C233.486 67.2921 234.344 64.3065 233.232 61.8043C232.12 59.3022 229.738 58.1056 227.333 57.2353C224.928 56.3649 222.341 55.7606 220.31 54.1892C218.279 52.6178 217.034 49.6443 218.34 47.4443C229.036 48.7261 239.542 51.2784 249.635 55.0474C251.967 55.9177 254.47 56.9693 255.799 59.0484C257.129 61.1274 257.201 64.0889 257.068 66.724C256.472 79.6174 255.876 92.4785 255.279 105.307" fill="#263238"/>
<path d="M262.967 76.0794C263.192 73.6965 264.189 71.4522 265.806 69.6878C267.423 67.9235 269.573 66.7355 271.927 66.3046C274.282 65.8736 276.712 66.2233 278.85 67.3004C280.987 68.3775 282.715 70.1231 283.769 72.2718C285.752 76.3212 285.063 81.2408 283.201 85.3506C281.001 90.1856 276.48 94.6822 271.114 94.4404C266.073 94.2108 262.024 89.7988 260.573 84.9638C259.123 80.1287 259.703 74.9674 260.307 69.9631" fill="#263238"/>
<path d="M265.772 95.6493C266.075 95.4243 266.33 95.1407 266.521 94.8153C267.083 93.9509 267.447 92.9724 267.585 91.9505C267.796 90.4428 267.751 88.9104 267.452 87.4177C267.162 85.7375 266.594 83.9727 266.243 82.0992C265.785 80.3691 265.678 78.5648 265.929 76.7927C266.219 75.1972 266.98 73.8433 267.307 72.5862C267.628 71.5962 267.658 70.5344 267.391 69.5281C267.162 68.8149 266.859 68.5248 266.835 68.549C266.811 68.5732 267.017 68.9116 267.15 69.5885C267.308 70.5505 267.216 71.5369 266.884 72.4533C266.293 73.8323 265.784 75.2449 265.361 76.6839C265.061 78.5316 265.151 80.4216 265.627 82.2321C266.05 84.1419 266.63 85.8584 266.944 87.5265C267.256 88.9587 267.346 90.4305 267.21 91.8901C267.006 93.232 266.516 94.5142 265.772 95.6493Z" fill="#455A64"/>
<path d="M265.927 78.497C266.493 79.3672 267.245 80.1018 268.127 80.6485C270.191 82.1026 272.643 82.9031 275.167 82.9462C277.691 82.9893 280.17 82.273 282.282 80.8903C283.177 80.3747 283.949 79.6692 284.542 78.8233C284.469 78.7387 283.648 79.5848 282.04 80.5156C279.959 81.7365 277.582 82.3599 275.17 82.3172C272.758 82.2746 270.405 81.5675 268.369 80.2738C266.846 79.2464 266.048 78.364 265.927 78.497Z" fill="#455A64"/>
<path d="M266.689 80.6848C266.939 81.507 267.35 82.2713 267.898 82.9331C269.125 84.6141 270.675 86.0328 272.459 87.106C274.242 88.1792 276.221 88.8851 278.281 89.1824C279.123 89.354 279.99 89.354 280.832 89.1824C280.015 88.984 279.187 88.8307 278.354 88.7231C276.388 88.3133 274.505 87.5779 272.781 86.5473C271.066 85.5082 269.535 84.1931 268.248 82.6551C267.269 81.4826 266.774 80.6365 266.689 80.6848Z" fill="#455A64"/>
<path d="M263.075 100.436C263.075 100.436 263.136 100.436 263.233 100.267C263.38 100.084 263.514 99.8897 263.631 99.6864C264.093 98.9155 264.412 98.068 264.574 97.1842C264.844 95.7764 264.765 94.3239 264.345 92.9536C263.802 91.1093 262.619 89.5191 261.008 88.4691C259.316 87.2604 257.104 86.4384 255.69 84.5286C255.336 84.0521 255.085 83.5076 254.952 82.9293C254.819 82.351 254.807 81.7514 254.916 81.1682C255.19 79.8928 255.595 78.6492 256.125 77.4574C256.687 76.0956 256.961 74.6322 256.93 73.1594C256.899 71.6865 256.563 70.2361 255.944 68.8994C255.295 67.4638 254.293 66.2162 253.031 65.2731C251.716 64.3566 250.22 63.7341 248.643 63.4479C247.096 63.0973 245.548 62.8919 244.11 62.4567C242.705 62.0781 241.414 61.36 240.351 60.3656C239.392 59.3344 238.808 58.01 238.695 56.6063C238.566 55.2071 238.344 53.818 238.03 52.4482C237.395 49.8728 236.055 47.5249 234.162 45.6671C232.5 44.0708 230.392 43.017 228.118 42.6452C226.468 42.3649 224.772 42.5566 223.226 43.1982C221.679 43.8397 220.346 44.9051 219.379 46.2715C218.865 47.0035 218.488 47.8225 218.267 48.689C218.178 48.9874 218.129 49.2963 218.122 49.6076C218.395 48.4546 218.892 47.3663 219.584 46.4044C220.412 45.2977 221.494 44.4064 222.739 43.8056C224.394 43.0176 226.254 42.7682 228.058 43.0924C230.241 43.4679 232.26 44.4962 233.848 46.0418C235.63 47.855 236.884 50.1202 237.474 52.5933C237.781 53.9597 237.999 55.3446 238.127 56.7393C238.257 58.2704 238.89 59.7154 239.928 60.8491C241.077 61.9172 242.472 62.6853 243.989 63.0853C245.488 63.5446 247.047 63.7501 248.558 64.1006C250.052 64.3715 251.472 64.9521 252.728 65.805C253.903 66.6838 254.838 67.8433 255.448 69.1774C256.033 70.4399 256.353 71.8094 256.386 73.2006C256.419 74.5917 256.166 75.9749 255.642 77.264C255.102 78.494 254.697 79.7787 254.433 81.0957C254.315 81.7501 254.334 82.4218 254.488 83.0686C254.642 83.7154 254.928 84.3235 255.327 84.8549C256.899 86.9098 259.171 87.7076 260.815 88.8559C262.365 89.8321 263.517 91.3272 264.067 93.0745C264.502 94.3862 264.614 95.7837 264.393 97.148C264.166 98.3176 263.719 99.4333 263.075 100.436Z" fill="#455A64"/>
<path d="M262.119 60.4503C262.226 60.2442 262.288 60.0175 262.301 59.7855C262.35 59.1172 262.18 58.451 261.817 57.8878C261.253 56.9775 260.403 56.2803 259.4 55.9054C258.069 55.4813 256.646 55.4353 255.29 55.7725C253.791 56.0626 252.232 56.6549 250.527 56.9812C249.655 57.2247 248.741 57.2784 247.847 57.1387C246.952 56.999 246.098 56.6691 245.342 56.1713C243.819 54.9626 243.057 53.0044 242.284 51.0221C241.498 48.8935 240.38 46.9026 238.972 45.1233C236.232 41.6351 232.401 39.1666 228.093 38.1125C226.206 37.6672 224.237 37.7171 222.375 38.2576C220.764 38.7714 219.33 39.7311 218.242 41.0256C217.323 42.0899 216.768 43.4196 216.658 44.8211C216.559 45.8678 216.721 46.9227 217.13 47.8914C217.373 48.5029 217.739 49.0582 218.205 49.5232C218.355 49.6994 218.535 49.8469 218.737 49.9583C218.147 49.3339 217.68 48.604 217.359 47.8068C217.011 46.8651 216.891 45.8544 217.009 44.8574C217.143 43.54 217.693 42.2995 218.58 41.3157C219.654 40.1252 221.04 39.2586 222.581 38.8136C224.363 38.3304 226.237 38.3013 228.032 38.729C232.179 39.7967 235.858 42.2012 238.5 45.5706C239.876 47.2769 240.974 49.1903 241.752 51.2396C242.55 53.222 243.335 55.3373 245.04 56.6307C245.862 57.247 246.843 57.6161 247.868 57.6944C248.807 57.766 249.752 57.7008 250.672 57.501C252.437 57.1263 253.972 56.5098 255.423 56.2076C256.7 55.8538 258.05 55.8538 259.327 56.2076C260.267 56.5368 261.077 57.1598 261.636 57.9845C261.999 58.5012 262.193 59.1177 262.192 59.7493C262.168 60.2207 262.083 60.4383 262.119 60.4503Z" fill="#455A64"/>
<path d="M128.372 105.609C128.372 105.972 125.749 106.262 122.521 106.262C119.294 106.262 116.671 105.972 116.671 105.609C116.671 105.246 119.282 104.968 122.521 104.968C125.761 104.968 128.372 105.258 128.372 105.609Z" fill="#3780EF"/>
<path d="M134.585 89.6897C134.947 89.6897 135.237 92.349 135.237 95.6247C135.237 98.9004 134.947 101.572 134.585 101.572C134.222 101.572 133.944 98.9125 133.944 95.6247C133.944 92.3369 134.174 89.6897 134.585 89.6897Z" fill="#3780EF"/>
<path d="M141.208 105.234C141.208 104.871 143.831 104.581 147.058 104.581C150.286 104.581 152.909 104.871 152.909 105.234C152.909 105.597 150.298 105.875 147.058 105.875C143.819 105.875 141.208 105.585 141.208 105.234Z" fill="#3780EF"/>
<path d="M134.996 121.154C134.633 121.154 134.343 118.494 134.343 115.219C134.343 111.943 134.633 109.271 134.996 109.271C135.358 109.271 135.636 111.931 135.636 115.219C135.636 118.506 135.382 121.154 134.996 121.154Z" fill="#3780EF"/>
<path d="M144.449 114.324C144.183 114.554 143.022 113.623 141.874 112.245C140.726 110.867 140.013 109.574 140.291 109.344C140.569 109.114 141.717 110.045 142.865 111.411C144.014 112.777 144.727 114.094 144.449 114.324Z" fill="#3780EF"/>
<path d="M143.842 96.2652C144.096 96.5191 143.335 97.7036 142.138 98.9003C140.941 100.097 139.781 100.883 139.527 100.629C139.273 100.375 140.035 99.1904 141.219 97.9938C142.404 96.7971 143.649 96.0114 143.842 96.2652Z" fill="#3780EF"/>
<path d="M130.486 100.871C130.256 101.137 129.156 100.593 128.068 99.6619C126.98 98.7311 126.195 97.7279 126.424 97.4619C126.654 97.196 127.754 97.7279 128.842 98.6707C129.93 99.6135 130.715 100.593 130.486 100.871Z" fill="#3780EF"/>
<path d="M129.967 108.824C130.221 109.066 129.568 110.226 128.48 111.411C127.392 112.596 126.304 113.369 126.063 113.127C125.821 112.886 126.461 111.725 127.549 110.541C128.637 109.356 129.701 108.583 129.967 108.824Z" fill="#3780EF"/>
<path d="M417.638 245.208C416.571 245.575 415.436 245.703 414.314 245.583C413.192 245.703 412.057 245.575 410.99 245.208C412.059 244.849 413.193 244.726 414.314 244.845C415.435 244.726 416.569 244.849 417.638 245.208Z" fill="#3780EF"/>
<path d="M421.168 236.167C421.651 238.389 421.651 240.689 421.168 242.911C420.668 240.691 420.668 238.387 421.168 236.167Z" fill="#3780EF"/>
<path d="M424.927 244.991C425.996 244.632 427.13 244.508 428.251 244.628C429.372 244.508 430.506 244.632 431.575 244.991C430.508 245.357 429.373 245.485 428.251 245.365C427.129 245.485 425.994 245.357 424.927 244.991Z" fill="#3780EF"/>
<path d="M421.398 254.032C420.898 251.811 420.898 249.508 421.398 247.287C421.882 249.509 421.882 251.81 421.398 254.032Z" fill="#3780EF"/>
<path d="M426.764 250.14C426.607 250.273 425.954 249.741 425.302 248.931C424.649 248.121 424.25 247.408 424.407 247.275C424.564 247.142 425.217 247.674 425.87 248.484C426.522 249.294 426.921 250.031 426.764 250.14Z" fill="#3780EF"/>
<path d="M426.463 239.901C426.596 240.046 426.173 240.711 425.496 241.4C424.819 242.089 424.154 242.524 424.009 242.379C423.864 242.234 424.287 241.569 424.964 240.88C425.641 240.192 426.318 239.756 426.463 239.901Z" fill="#3780EF"/>
<path d="M418.835 242.512C418.714 242.67 418.085 242.367 417.433 241.823C416.78 241.279 416.369 240.723 416.502 240.615C416.635 240.506 417.264 240.772 417.904 241.304C418.545 241.835 418.968 242.355 418.835 242.512Z" fill="#3780EF"/>
<path d="M418.546 247.033C418.691 247.166 418.316 247.831 417.699 248.508C417.083 249.185 416.491 249.62 416.309 249.475C416.128 249.33 416.539 248.677 417.155 248.013C417.772 247.348 418.388 246.9 418.546 247.033Z" fill="#3780EF"/>
<path d="M122.34 316.863C120.15 317.347 117.881 317.347 115.692 316.863C117.88 316.363 120.152 316.363 122.34 316.863Z" fill="#3780EF"/>
<path d="M125.869 307.822C126.353 310.044 126.353 312.344 125.869 314.567C125.37 312.346 125.37 310.042 125.869 307.822Z" fill="#3780EF"/>
<path d="M129.629 316.621C131.817 316.121 134.089 316.121 136.277 316.621C134.087 317.105 131.818 317.105 129.629 316.621Z" fill="#3780EF"/>
<path d="M126.098 325.687C125.598 323.466 125.598 321.163 126.098 318.942C126.581 321.164 126.581 323.465 126.098 325.687Z" fill="#3780EF"/>
<path d="M131.466 321.807C131.309 321.94 130.656 321.408 130.003 320.598C129.35 319.788 128.952 319.087 129.109 318.954C129.266 318.821 129.919 319.353 130.571 320.163C131.224 320.973 131.623 321.674 131.466 321.807Z" fill="#3780EF"/>
<path d="M131.152 311.557C131.297 311.702 130.874 312.366 130.197 313.055C129.52 313.744 128.843 314.168 128.71 314.035C128.577 313.902 128.988 313.213 129.665 312.536C130.342 311.859 131.019 311.412 131.152 311.557Z" fill="#3780EF"/>
<path d="M123.537 314.204C123.416 314.361 122.787 314.047 122.134 313.515C121.482 312.983 121.071 312.415 121.204 312.306C121.337 312.197 121.965 312.463 122.606 312.995C123.246 313.527 123.67 314.01 123.537 314.204Z" fill="#3780EF"/>
<path d="M123.294 318.688C123.439 318.821 123.064 319.474 122.448 320.151C121.831 320.828 121.239 321.263 121.058 321.13C120.877 320.997 121.288 320.332 121.904 319.655C122.52 318.978 123.089 318.543 123.294 318.688Z" fill="#3780EF"/>
<path d="M366.798 504.039C364.612 504.522 362.347 504.522 360.162 504.039C362.347 503.555 364.612 503.555 366.798 504.039Z" fill="#3780EF"/>
<path d="M370.328 494.997C370.828 497.218 370.828 499.521 370.328 501.742C369.845 499.52 369.845 497.219 370.328 494.997Z" fill="#3780EF"/>
<path d="M374.087 503.821C376.276 503.338 378.545 503.338 380.735 503.821C378.547 504.321 376.275 504.321 374.087 503.821Z" fill="#3780EF"/>
<path d="M370.557 512.863C370.074 510.64 370.074 508.34 370.557 506.118C371.057 508.338 371.057 510.642 370.557 512.863Z" fill="#3780EF"/>
<path d="M375.924 508.983C375.767 509.116 375.114 508.584 374.461 507.774C373.809 506.964 373.398 506.251 373.555 506.118C373.712 505.985 374.365 506.517 375.017 507.327C375.67 508.137 376.093 508.814 375.924 508.983Z" fill="#3780EF"/>
<path d="M375.622 498.732C375.767 498.877 375.332 499.542 374.655 500.231C373.978 500.92 373.313 501.355 373.168 501.21C373.023 501.065 373.458 500.4 374.135 499.711C374.812 499.022 375.477 498.587 375.622 498.732Z" fill="#3780EF"/>
<path d="M368.007 501.343C367.874 501.5 367.246 501.198 366.605 500.654C365.964 500.11 365.541 499.554 365.674 499.445C365.807 499.337 366.424 499.603 367.077 500.134C367.729 500.666 368.14 501.186 368.007 501.343Z" fill="#3780EF"/>
<path d="M367.705 505.864C367.862 505.997 367.475 506.662 366.871 507.339C366.266 508.016 365.662 508.439 365.481 508.306C365.299 508.173 365.71 507.508 366.327 506.843C366.943 506.178 367.56 505.731 367.705 505.864Z" fill="#3780EF"/>
<path d="M371.633 196.217L372.02 197.136C372.35 197.926 372.833 198.643 373.441 199.247C374.048 199.851 374.769 200.328 375.562 200.653L376.565 201.052L375.61 201.439C374.791 201.765 374.046 202.254 373.423 202.878C372.799 203.501 372.31 204.246 371.984 205.065L371.706 205.73L371.307 204.896C370.572 203.37 369.271 202.19 367.681 201.608L366.822 201.294L367.947 200.738C369.373 200.049 370.5 198.862 371.113 197.402L371.633 196.217Z" fill="#3780EF"/>
<path d="M414.277 180.225L414.471 180.685C414.634 181.081 414.873 181.441 415.176 181.744C415.479 182.047 415.839 182.287 416.235 182.449L416.743 182.643L416.26 182.836C415.856 183.002 415.49 183.246 415.183 183.556C414.876 183.865 414.633 184.233 414.471 184.637L414.338 184.964L414.132 184.553C413.767 183.788 413.116 183.197 412.319 182.909L411.884 182.752L412.452 182.474C413.164 182.127 413.727 181.535 414.036 180.806L414.277 180.225Z" fill="#3780EF"/>
<path d="M83.5624 114.553L83.7559 115.013C83.9214 115.408 84.1637 115.766 84.4687 116.067C84.7737 116.368 85.1354 116.605 85.5327 116.765L86.0283 116.971L85.5569 117.164C85.1532 117.326 84.7865 117.568 84.479 117.876C84.1716 118.183 83.9296 118.55 83.7679 118.953L83.6229 119.292L83.4295 118.869C83.0602 118.107 82.4104 117.518 81.6163 117.225L81.1812 117.068L81.7493 116.802C82.4622 116.451 83.0245 115.854 83.3328 115.122L83.5624 114.553Z" fill="#3780EF"/>
<path d="M101.754 360.644L101.935 361.104C102.273 361.899 102.912 362.529 103.712 362.856L104.208 363.062L103.736 363.255C103.332 363.417 102.966 363.659 102.658 363.966C102.351 364.274 102.109 364.64 101.947 365.044L101.814 365.383L101.609 364.96C101.244 364.195 100.592 363.604 99.7956 363.316L99.3604 363.158L99.9286 362.88C100.645 362.541 101.21 361.946 101.512 361.212L101.754 360.644Z" fill="#3780EF"/>
<path d="M356.584 468.441L356.778 468.9C356.943 469.297 357.185 469.657 357.49 469.96C357.795 470.263 358.157 470.503 358.555 470.665L359.05 470.871L358.579 471.064C358.174 471.224 357.806 471.465 357.499 471.773C357.191 472.081 356.95 472.448 356.79 472.853L356.657 473.192L356.451 472.768C356.086 472.004 355.435 471.413 354.638 471.125L354.203 470.967L354.771 470.689C355.486 470.347 356.05 469.753 356.355 469.021L356.584 468.441Z" fill="#3780EF"/>
<path d="M165.069 66.8682L165.263 67.3275C165.425 67.7248 165.666 68.085 165.971 68.3863C166.277 68.6875 166.64 68.9236 167.04 69.0802L167.535 69.2857L167.052 69.4791C166.652 69.6404 166.288 69.8795 165.98 70.1824C165.673 70.4853 165.429 70.8461 165.263 71.2439L165.13 71.5702L164.924 71.1592C164.564 70.3953 163.917 69.8044 163.123 69.5153L162.688 69.3461L163.256 69.0802C163.969 68.7322 164.528 68.1341 164.828 67.4L165.069 66.8682Z" fill="#3780EF"/>
<path d="M136.191 388.482L136.578 389.401C136.908 390.191 137.391 390.908 137.998 391.512C138.606 392.116 139.327 392.593 140.119 392.918L141.123 393.317L140.168 393.704C139.348 394.03 138.604 394.519 137.98 395.143C137.357 395.766 136.867 396.511 136.541 397.33L136.263 397.995L135.864 397.161C135.133 395.632 133.831 394.451 132.238 393.873L131.368 393.559L132.504 393.003C133.932 392.309 135.058 391.118 135.671 389.654L136.191 388.482Z" fill="#3780EF"/>
</svg>
