<svg preserveAspectRatio="none" width="100%" height="100%" overflow="visible" style="display: block;" viewBox="0 0 157.151 32.0003" fill="none" xmlns="http://www.w3.org/2000/svg">
<g id="Group">
<path id="Vector" d="M126.133 0.708669C130.506 1.22829 132.585 6.26982 131.091 10.1175C128.632 16.4457 121.339 13.3001 116.347 14.293C114.052 14.7476 111.819 17.0828 111.819 19.4768V28.1278H131.549V31.6197L131.397 31.7713H108.379V29.9001C108.098 28.4433 108.367 26.9123 108.386 25.4555C108.441 20.714 107.377 15.8611 111.627 12.6104C115.914 9.33185 120.788 11.4041 125.607 10.6062C127.995 10.2103 128.836 6.6317 126.943 5.06666C126.646 4.81922 125.57 4.2563 125.224 4.2563H111.111V0.714856H126.136L126.133 0.708669Z" fill="var(--fill-0, #E0051C)"/>
<path id="Vector_2" d="M3.66031 14.3664V24.0289C3.66031 24.2794 3.9294 25.0897 4.04693 25.3619C4.70882 26.9115 6.18415 27.9755 7.80794 28.3281V31.8695C5.79135 31.6994 3.71289 30.6818 2.34581 29.1879C1.06224 27.7837 0.236421 25.8382 0.112703 23.933C-0.215149 18.8667 0.282814 13.3334 0.220955 8.24547C0.171468 7.05777 0.125075 5.87316 0.112703 4.70711C0.100331 3.60911 -0.0110148 1.9884 0.112703 0.955351C0.131261 0.806888 0.121981 0.698635 0.270443 0.605847H17.5724C18.4291 0.605847 20.09 1.28011 20.8509 1.77808C25.1624 4.59268 24.4758 11.9663 19.6446 13.9087C19.3694 14.02 18.3054 14.3664 18.0765 14.3664H3.65722H3.66031ZM3.66031 10.825H17.2693C17.5353 10.825 18.2404 10.5776 18.5033 10.4384C20.7952 9.23212 20.7674 5.77419 18.4013 4.63288C18.2621 4.56484 17.3528 4.24626 17.2693 4.24626H3.81186L3.66031 4.39782V10.8219V10.825Z" fill="var(--fill-0, #161616)"/>
<path id="Vector_3" d="M56.9762 10.8258H60.6197V25.041C60.6197 25.4277 61.0558 26.3587 61.2847 26.702C62.8466 29.0495 66.4994 28.8516 67.8232 26.3741C67.9284 26.1731 68.3119 25.1957 68.3119 25.041V10.8258H71.8533V25.1431C71.8533 26.4855 70.8017 28.734 69.8707 29.7393C67.1242 32.7054 61.6713 32.8168 58.999 29.696C58.9372 29.6248 58.9 29.5382 58.9 29.4454C58.8537 29.4485 58.7949 29.43 58.7516 29.4454C58.7021 29.464 58.1763 30.1104 58.0186 30.2496C55.1761 32.7549 50.1965 32.5539 47.6758 29.696C46.7417 28.6382 45.7519 26.5504 45.7519 25.1431V10.8258H49.1418L49.2934 10.9773V25.041C49.2934 25.3225 49.6924 26.2133 49.8563 26.5009C51.3935 29.198 55.5133 28.9103 56.6638 26.0401C56.7226 25.8947 56.9793 25.1184 56.9793 25.041V10.8258H56.9762Z" fill="var(--fill-0, #161616)"/>
<path id="Vector_4" d="M157.151 0.606121V23.624C157.151 24.3168 156.449 26.2592 156.09 26.9149C153.412 31.8327 147.919 32.0121 142.93 31.7739C139.215 31.5976 135.547 29.7449 134.032 26.2035C133.837 25.7457 133.373 24.3694 133.373 23.9271V0.708187H136.661C136.688 0.708187 136.732 0.584471 136.812 0.606121V22.4115C136.812 25.0467 139.345 27.5304 141.844 28.0005C143.511 28.3129 147.659 28.2634 149.28 27.7933C150.9 27.3231 152.673 25.7952 153.177 24.2023C153.27 23.9085 153.508 22.7579 153.508 22.5105V0.757676L153.659 0.606121H157.151Z" fill="var(--fill-0, #E0051C)"/>
<path id="Vector_5" d="M91.9915 10.8258V14.3672H83.4426C81.9426 14.3672 79.9538 15.4405 78.9888 16.5911C78.8527 16.7519 78.6517 16.9839 78.6362 17.2004H91.9915V20.8439H77.3217V22.5141C77.3217 22.7708 77.798 24.2183 77.9403 24.5245C78.6177 25.9782 79.8641 27.1071 81.3395 27.701C81.6302 27.8185 82.8055 28.2299 83.0375 28.2299H91.9915V31.7713H83.3406C83.1674 31.759 83.0096 31.6847 82.8364 31.6693C82.6045 31.6507 82.3725 31.6909 82.1374 31.66C71.7884 30.3053 70.61 15.2425 80.0528 11.4846C80.5322 11.2928 81.9828 10.8258 82.4313 10.8258H91.9915Z" fill="var(--fill-0, #161616)"/>
<path id="Vector_6" d="M42.9998 21.2116C42.9998 27.147 38.1872 31.9566 32.2549 31.9566C26.3227 31.9566 21.51 27.1439 21.51 21.2116C21.51 15.2793 26.3227 10.4667 32.2549 10.4667C38.1872 10.4667 42.9998 15.2793 42.9998 21.2116ZM39.3594 21.2209C39.3594 17.3052 36.1861 14.1318 32.2704 14.1318C28.3547 14.1318 25.1814 17.3052 25.1814 21.2209C25.1814 25.1366 28.3547 28.31 32.2704 28.31C36.1861 28.31 39.3594 25.1366 39.3594 21.2209Z" fill="var(--fill-0, #161616)"/>
<path id="Vector_7" d="M107.383 10.8258V14.3672H101.565C101.525 14.3672 100.919 14.5776 100.807 14.6209C99.9752 14.9363 99.0937 15.6663 98.7318 16.4921C98.636 16.7086 98.3792 17.6674 98.3792 17.8592V31.8734H94.8873L94.7357 31.7219V17.5561C94.7357 15.8828 96.1492 13.4981 97.4173 12.4496C98.1349 11.8557 100.155 10.8289 101.058 10.8289H107.383V10.8258Z" fill="var(--fill-0, #161616)"/>
<path id="Vector_8" d="M32.8973 0H27.129V5.56424H32.8973V0Z" fill="var(--fill-0, #E0051C)"/>
<path id="Vector_9" d="M109.237 0.0120338H34.8608V5.57628H109.237V0.0120338Z" fill="url(#paint0_linear_0_45)"/>
</g>
<defs>
<linearGradient id="paint0_linear_0_45" x1="34.8608" y1="2.7957" x2="109.237" y2="2.7957" gradientUnits="userSpaceOnUse">
<stop stop-color="white"/>
<stop offset="1"/>
</linearGradient>
</defs>
</svg>
