<svg width="87" height="44" viewBox="0 0 87 44" fill="none" xmlns="http://www.w3.org/2000/svg">
<path d="M86.2876 21.7503L43.5 0.356525L0.712419 21.7503L43.5 43.1441L86.2876 21.7503Z" fill="white" stroke="#CBD5E1" stroke-width="0.790569" stroke-dasharray="2.37 2.37"/>
<path d="M64.8954 11.0533L64.5389 10.875L63.4692 11.4098L63.8258 11.5881L64.1823 11.7664L65.252 11.2315L64.8954 11.0533ZM61.6864 12.6578L61.3298 12.4795L59.1904 13.5492L59.547 13.7275L59.9036 13.9058L62.0429 12.8361L61.6864 12.6578ZM57.4076 14.7972L57.0511 14.6189L54.9117 15.6886L55.2682 15.8669L55.6248 16.0451L57.7642 14.9755L57.4076 14.7972ZM53.1289 16.9366L52.7723 16.7583L50.6329 17.828L50.9895 18.0062L51.346 18.1845L53.4854 17.1148L53.1289 16.9366ZM48.8501 19.0759L48.4935 18.8977L46.3542 19.9673L46.7107 20.1456L47.0673 20.3239L49.2067 19.2542L48.8501 19.0759ZM44.5713 21.2153L44.2148 21.037L42.0754 22.1067L42.432 22.285L42.7885 22.4633L44.9279 21.3936L44.5713 21.2153ZM40.2926 23.3547L39.936 23.1764L37.7966 24.2461L38.1532 24.4244L38.5098 24.6027L40.6492 23.533L40.2926 23.3547ZM36.0138 25.4941L35.6573 25.3158L33.5179 26.3855L33.8745 26.5638L34.231 26.742L36.3704 25.6724L36.0138 25.4941ZM31.7351 27.6334L31.3785 27.4552L29.2391 28.5249L29.5957 28.7031L29.9523 28.8814L32.0916 27.8117L31.7351 27.6334ZM27.4563 29.7728L27.0998 29.5945L24.9604 30.6642L25.3169 30.8425L25.6735 31.0208L27.8129 29.9511L27.4563 29.7728ZM23.1776 31.9122L22.821 31.7339L21.7513 32.2688L22.1079 32.4471L22.4644 32.6253L23.5341 32.0905L23.1776 31.9122Z" fill="#CBD5E1"/>
<path d="M22.1046 11.0533L21.748 11.2315L22.8177 11.7664L23.1742 11.5881L23.5308 11.4098L22.4611 10.875L22.1046 11.0533ZM25.3136 12.6578L24.9571 12.8361L27.0964 13.9058L27.453 13.7275L27.8096 13.5492L25.6702 12.4795L25.3136 12.6578ZM29.5924 14.7972L29.2358 14.9755L31.3752 16.0451L31.7318 15.8669L32.0883 15.6886L29.9489 14.6189L29.5924 14.7972ZM33.8711 16.9366L33.5146 17.1148L35.654 18.1845L36.0105 18.0062L36.3671 17.828L34.2277 16.7583L33.8711 16.9366ZM38.1499 19.0759L37.7933 19.2542L39.9327 20.3239L40.2893 20.1456L40.6458 19.9673L38.5065 18.8977L38.1499 19.0759ZM42.4287 21.2153L42.0721 21.3936L44.2115 22.4633L44.568 22.285L44.9246 22.1067L42.7852 21.037L42.4287 21.2153ZM46.7074 23.3547L46.3508 23.533L48.4902 24.6027L48.8468 24.4244L49.2034 24.2461L47.064 23.1764L46.7074 23.3547ZM50.9862 25.4941L50.6296 25.6724L52.769 26.742L53.1255 26.5638L53.4821 26.3855L51.3427 25.3158L50.9862 25.4941ZM55.2649 27.6334L54.9084 27.8117L57.0477 28.8814L57.4043 28.7031L57.7609 28.5249L55.6215 27.4552L55.2649 27.6334ZM59.5437 29.7728L59.1871 29.9511L61.3265 31.0208L61.6831 30.8425L62.0396 30.6642L59.9002 29.5945L59.5437 29.7728ZM63.8224 31.9122L63.4659 32.0905L64.5356 32.6253L64.8921 32.4471L65.2487 32.2688L64.179 31.7339L63.8224 31.9122Z" fill="#CBD5E1"/>
<path d="M40.6486 19.0705L34.9436 16.218C34.1559 15.8242 32.8787 15.8242 32.091 16.218L26.386 19.0705C25.5983 19.4644 25.5983 20.1029 26.386 20.4968L32.091 23.3493C32.8787 23.7431 34.1559 23.7431 34.9436 23.3493L40.6486 20.4968C41.4363 20.1029 41.4363 19.4644 40.6486 19.0705Z" fill="white" stroke="#FF7F1C" stroke-width="1.18585" stroke-linecap="round" stroke-linejoin="round"/>
<path d="M60.614 29.0542L54.909 26.2017C54.1213 25.8079 52.8441 25.8079 52.0564 26.2017L46.3514 29.0542C45.5637 29.4481 45.5637 30.0866 46.3514 30.4805L52.0564 33.333C52.8441 33.7268 54.1213 33.7268 54.909 33.333L60.614 30.4805C61.4017 30.0866 61.4017 29.4481 60.614 29.0542Z" fill="white" stroke="#FF7F1C" stroke-width="1.18585" stroke-linecap="round" stroke-linejoin="round"/>
<path d="M40.6486 19.0705L34.9436 16.218C34.1559 15.8242 32.8787 15.8242 32.091 16.218L26.386 19.0705C25.5983 19.4644 25.5983 20.1029 26.386 20.4968L32.091 23.3493C32.8787 23.7431 34.1559 23.7431 34.9436 23.3493L40.6486 20.4968C41.4363 20.1029 41.4363 19.4644 40.6486 19.0705Z" fill="#C25E0A" stroke="#C25E0A" stroke-width="1.42302" stroke-linecap="round" stroke-linejoin="round"/>
<path d="M60.614 29.0542L54.909 26.2017C54.1213 25.8079 52.8441 25.8079 52.0564 26.2017L46.3514 29.0542C45.5637 29.4481 45.5637 30.0866 46.3514 30.4805L52.0564 33.333C52.8441 33.7268 54.1213 33.7268 54.909 33.333L60.614 30.4805C61.4017 30.0866 61.4017 29.4481 60.614 29.0542Z" fill="#C25E0A" stroke="#C25E0A" stroke-width="1.42302" stroke-linecap="round" stroke-linejoin="round"/>
<path d="M40.6486 18.5663L34.9436 15.7138C34.1559 15.3199 32.8787 15.3199 32.091 15.7138L26.386 18.5663C25.5983 18.9601 25.5983 19.5987 26.386 19.9925L32.091 22.845C32.8787 23.2389 34.1559 23.2389 34.9436 22.845L40.6486 19.9925C41.4363 19.5987 41.4363 18.9601 40.6486 18.5663Z" fill="#C25E0A" stroke="#C25E0A" stroke-width="1.42302" stroke-linecap="round" stroke-linejoin="round"/>
<path d="M60.614 28.55L54.909 25.6975C54.1213 25.3036 52.8441 25.3036 52.0564 25.6975L46.3514 28.55C45.5637 28.9438 45.5637 29.5824 46.3514 29.9762L52.0564 32.8287C52.8441 33.2226 54.1213 33.2226 54.909 32.8287L60.614 29.9762C61.4017 29.5824 61.4017 28.9438 60.614 28.55Z" fill="#C25E0A" stroke="#C25E0A" stroke-width="1.42302" stroke-linecap="round" stroke-linejoin="round"/>
<path d="M40.6486 18.062L34.9436 15.2095C34.1559 14.8157 32.8787 14.8157 32.091 15.2095L26.386 18.062C25.5983 18.4559 25.5983 19.0944 26.386 19.4883L32.091 22.3408C32.8787 22.7346 34.1559 22.7346 34.9436 22.3408L40.6486 19.4883C41.4363 19.0944 41.4363 18.4559 40.6486 18.062Z" fill="#C25E0A" stroke="#C25E0A" stroke-width="1.42302" stroke-linecap="round" stroke-linejoin="round"/>
<path d="M60.614 28.0457L54.909 25.1932C54.1213 24.7994 52.8441 24.7994 52.0564 25.1932L46.3514 28.0457C45.5637 28.4396 45.5637 29.0781 46.3514 29.472L52.0564 32.3245C52.8441 32.7183 54.1213 32.7183 54.909 32.3245L60.614 29.472C61.4017 29.0781 61.4017 28.4396 60.614 28.0457Z" fill="#C25E0A" stroke="#C25E0A" stroke-width="1.42302" stroke-linecap="round" stroke-linejoin="round"/>
<path d="M40.6486 17.5578L34.9436 14.7053C34.1559 14.3114 32.8787 14.3114 32.091 14.7053L26.386 17.5578C25.5983 17.9516 25.5983 18.5902 26.386 18.984L32.091 21.8365C32.8787 22.2304 34.1559 22.2304 34.9436 21.8365L40.6486 18.984C41.4363 18.5902 41.4363 17.9516 40.6486 17.5578Z" fill="#C25E0A" stroke="#C25E0A" stroke-width="1.42302" stroke-linecap="round" stroke-linejoin="round"/>
<path d="M60.614 27.5415L54.909 24.6889C54.1213 24.2951 52.8441 24.2951 52.0564 24.6889L46.3514 27.5415C45.5637 27.9353 45.5637 28.5739 46.3514 28.9677L52.0564 31.8202C52.8441 32.2141 54.1213 32.2141 54.909 31.8202L60.614 28.9677C61.4017 28.5739 61.4017 27.9353 60.614 27.5415Z" fill="#C25E0A" stroke="#C25E0A" stroke-width="1.42302" stroke-linecap="round" stroke-linejoin="round"/>
<path d="M40.6486 17.0535L34.9436 14.201C34.1559 13.8072 32.8787 13.8072 32.091 14.201L26.386 17.0535C25.5983 17.4474 25.5983 18.0859 26.386 18.4798L32.091 21.3323C32.8787 21.7261 34.1559 21.7261 34.9436 21.3323L40.6486 18.4798C41.4363 18.0859 41.4363 17.4474 40.6486 17.0535Z" fill="#C25E0A" stroke="#C25E0A" stroke-width="1.42302" stroke-linecap="round" stroke-linejoin="round"/>
<path d="M60.614 27.0372L54.909 24.1847C54.1213 23.7908 52.8441 23.7908 52.0564 24.1847L46.3514 27.0372C45.5637 27.431 45.5637 28.0696 46.3514 28.4634L52.0564 31.316C52.8441 31.7098 54.1213 31.7098 54.909 31.316L60.614 28.4634C61.4017 28.0696 61.4017 27.431 60.614 27.0372Z" fill="#C25E0A" stroke="#C25E0A" stroke-width="1.42302" stroke-linecap="round" stroke-linejoin="round"/>
<path d="M40.6486 16.5493L34.9436 13.6967C34.1559 13.3029 32.8787 13.3029 32.091 13.6967L26.386 16.5493C25.5983 16.9431 25.5983 17.5817 26.386 17.9755L32.091 20.828C32.8787 21.2219 34.1559 21.2219 34.9436 20.828L40.6486 17.9755C41.4363 17.5817 41.4363 16.9431 40.6486 16.5493Z" fill="#C25E0A" stroke="#C25E0A" stroke-width="1.42302" stroke-linecap="round" stroke-linejoin="round"/>
<path d="M60.614 26.5329L54.909 23.6804C54.1213 23.2866 52.8441 23.2866 52.0564 23.6804L46.3514 26.5329C45.5637 26.9268 45.5637 27.5653 46.3514 27.9592L52.0564 30.8117C52.8441 31.2055 54.1213 31.2055 54.909 30.8117L60.614 27.9592C61.4017 27.5653 61.4017 26.9268 60.614 26.5329Z" fill="#C25E0A" stroke="#C25E0A" stroke-width="1.42302" stroke-linecap="round" stroke-linejoin="round"/>
<path d="M40.6486 16.045L34.9436 13.1925C34.1559 12.7986 32.8787 12.7986 32.091 13.1925L26.386 16.045C25.5983 16.4388 25.5983 17.0774 26.386 17.4712L32.091 20.3238C32.8787 20.7176 34.1559 20.7176 34.9436 20.3238L40.6486 17.4712C41.4363 17.0774 41.4363 16.4388 40.6486 16.045Z" fill="white" stroke="#FF7F1C" stroke-width="1.18585" stroke-linecap="round" stroke-linejoin="round"/>
<path d="M60.614 26.0287L54.909 23.1762C54.1213 22.7823 52.8441 22.7823 52.0564 23.1762L46.3514 26.0287C45.5637 26.4225 45.5637 27.0611 46.3514 27.4549L52.0564 30.3074C52.8441 30.7013 54.1213 30.7013 54.909 30.3074L60.614 27.4549C61.4017 27.0611 61.4017 26.4225 60.614 26.0287Z" fill="white" stroke="#FF7F1C" stroke-width="1.18585" stroke-linecap="round" stroke-linejoin="round"/>
<path fill-rule="evenodd" clip-rule="evenodd" d="M56.0514 13.6357L58.4048 14.8124L56.8359 15.989L56.8359 17.1657L58.4048 18.3423L56.0514 19.519L53.6981 18.7346H51.3448L48.9915 19.519L46.6382 18.3423L48.207 17.1657L48.207 15.989L46.6382 14.8124L48.9915 13.6357L51.3448 14.4201H53.6981L56.0514 13.6357ZM54.0903 15.7929C53.6742 15.5849 53.1099 15.468 52.5215 15.468C51.933 15.468 51.3687 15.5849 50.9526 15.7929C50.5365 16.001 50.3027 16.2831 50.3027 16.5773C50.3027 16.8716 50.5365 17.1537 50.9526 17.3618C51.3687 17.5698 51.933 17.6867 52.5215 17.6867C53.1099 17.6867 53.6742 17.5698 54.0903 17.3618C54.5064 17.1537 54.7402 16.8716 54.7402 16.5773C54.7402 16.2831 54.5064 16.001 54.0903 15.7929Z" fill="white" stroke="#1C2BFF" stroke-width="0.65222" stroke-linecap="round" stroke-linejoin="round"/>
<path fill-rule="evenodd" clip-rule="evenodd" d="M56.0514 13.6357L58.4048 14.8124L56.8359 15.989L56.8359 17.1657L58.4048 18.3423L56.0514 19.519L53.6981 18.7346H51.3448L48.9915 19.519L46.6382 18.3423L48.207 17.1657L48.207 15.989L46.6382 14.8124L48.9915 13.6357L51.3448 14.4201H53.6981L56.0514 13.6357ZM54.0903 15.7929C53.6742 15.5849 53.1099 15.468 52.5215 15.468C51.933 15.468 51.3687 15.5849 50.9526 15.7929C50.5365 16.001 50.3027 16.2831 50.3027 16.5773C50.3027 16.8716 50.5365 17.1537 50.9526 17.3618C51.3687 17.5698 51.933 17.6867 52.5215 17.6867C53.1099 17.6867 53.6742 17.5698 54.0903 17.3618C54.5064 17.1537 54.7402 16.8716 54.7402 16.5773C54.7402 16.2831 54.5064 16.001 54.0903 15.7929Z" fill="#141FB5" stroke="#141FB5" stroke-width="0.782664" stroke-linecap="round" stroke-linejoin="round"/>
<path fill-rule="evenodd" clip-rule="evenodd" d="M56.0514 13.1314L58.4048 14.3081L56.8359 15.4848L56.8359 16.6614L58.4048 17.8381L56.0514 19.0147L53.6981 18.2303H51.3448L48.9915 19.0147L46.6382 17.8381L48.207 16.6614L48.207 15.4848L46.6382 14.3081L48.9915 13.1314L51.3448 13.9159H53.6981L56.0514 13.1314ZM54.0903 15.2886C53.6742 15.0806 53.1099 14.9637 52.5215 14.9637C51.933 14.9637 51.3687 15.0806 50.9526 15.2886C50.5365 15.4967 50.3027 15.7789 50.3027 16.0731C50.3027 16.3673 50.5365 16.6495 50.9526 16.8575C51.3687 17.0656 51.933 17.1825 52.5215 17.1825C53.1099 17.1825 53.6742 17.0656 54.0903 16.8575C54.5064 16.6495 54.7402 16.3673 54.7402 16.0731C54.7402 15.7789 54.5064 15.4967 54.0903 15.2886Z" fill="#141FB5" stroke="#141FB5" stroke-width="0.782664" stroke-linecap="round" stroke-linejoin="round"/>
<path fill-rule="evenodd" clip-rule="evenodd" d="M56.0514 12.6272L58.4048 13.8038L56.8359 14.9805L56.8359 16.1572L58.4048 17.3338L56.0514 18.5105L53.6981 17.726H51.3448L48.9915 18.5105L46.6382 17.3338L48.207 16.1572L48.207 14.9805L46.6382 13.8038L48.9915 12.6272L51.3448 13.4116H53.6981L56.0514 12.6272ZM54.0903 14.7844C53.6742 14.5763 53.1099 14.4595 52.5215 14.4595C51.933 14.4595 51.3687 14.5763 50.9526 14.7844C50.5365 14.9924 50.3027 15.2746 50.3027 15.5688C50.3027 15.8631 50.5365 16.1452 50.9526 16.3533C51.3687 16.5613 51.933 16.6782 52.5215 16.6782C53.1099 16.6782 53.6742 16.5613 54.0903 16.3533C54.5064 16.1452 54.7402 15.8631 54.7402 15.5688C54.7402 15.2746 54.5064 14.9924 54.0903 14.7844Z" fill="#141FB5" stroke="#141FB5" stroke-width="0.782664" stroke-linecap="round" stroke-linejoin="round"/>
<path fill-rule="evenodd" clip-rule="evenodd" d="M56.0514 12.1229L58.4048 13.2996L56.8359 14.4762L56.8359 15.6529L58.4048 16.8296L56.0514 18.0062L53.6981 17.2218H51.3448L48.9915 18.0062L46.6382 16.8296L48.207 15.6529L48.207 14.4762L46.6382 13.2996L48.9915 12.1229L51.3448 12.9074H53.6981L56.0514 12.1229ZM54.0903 14.2801C53.6742 14.0721 53.1099 13.9552 52.5215 13.9552C51.933 13.9552 51.3687 14.0721 50.9526 14.2801C50.5365 14.4882 50.3027 14.7704 50.3027 15.0646C50.3027 15.3588 50.5365 15.641 50.9526 15.849C51.3687 16.0571 51.933 16.1739 52.5215 16.1739C53.1099 16.1739 53.6742 16.0571 54.0903 15.849C54.5064 15.641 54.7402 15.3588 54.7402 15.0646C54.7402 14.7704 54.5064 14.4882 54.0903 14.2801Z" fill="#141FB5" stroke="#141FB5" stroke-width="0.782664" stroke-linecap="round" stroke-linejoin="round"/>
<path fill-rule="evenodd" clip-rule="evenodd" d="M56.0514 11.6187L58.4048 12.7953L56.8359 13.972L56.8359 15.1486L58.4048 16.3253L56.0514 17.502L53.6981 16.7175H51.3448L48.9915 17.502L46.6382 16.3253L48.207 15.1486L48.207 13.972L46.6382 12.7953L48.9915 11.6187L51.3448 12.4031H53.6981L56.0514 11.6187ZM54.0903 13.7759C53.6742 13.5678 53.1099 13.451 52.5215 13.451C51.933 13.451 51.3687 13.5678 50.9526 13.7759C50.5365 13.9839 50.3027 14.2661 50.3027 14.5603C50.3027 14.8545 50.5365 15.1367 50.9526 15.3448C51.3687 15.5528 51.933 15.6697 52.5215 15.6697C53.1099 15.6697 53.6742 15.5528 54.0903 15.3448C54.5064 15.1367 54.7402 14.8545 54.7402 14.5603C54.7402 14.2661 54.5064 13.9839 54.0903 13.7759Z" fill="#141FB5" stroke="#141FB5" stroke-width="0.782664" stroke-linecap="round" stroke-linejoin="round"/>
<path fill-rule="evenodd" clip-rule="evenodd" d="M56.0514 11.1144L58.4048 12.2911L56.8359 13.4677L56.8359 14.6444L58.4048 15.821L56.0514 16.9977L53.6981 16.2133H51.3448L48.9915 16.9977L46.6382 15.821L48.207 14.6444L48.207 13.4677L46.6382 12.2911L48.9915 11.1144L51.3448 11.8989H53.6981L56.0514 11.1144ZM54.0903 13.2716C53.6742 13.0636 53.1099 12.9467 52.5215 12.9467C51.933 12.9467 51.3687 13.0636 50.9526 13.2716C50.5365 13.4797 50.3027 13.7618 50.3027 14.0561C50.3027 14.3503 50.5365 14.6325 50.9526 14.8405C51.3687 15.0485 51.933 15.1654 52.5215 15.1654C53.1099 15.1654 53.6742 15.0485 54.0903 14.8405C54.5064 14.6325 54.7402 14.3503 54.7402 14.0561C54.7402 13.7618 54.5064 13.4797 54.0903 13.2716Z" fill="#141FB5" stroke="#141FB5" stroke-width="0.782664" stroke-linecap="round" stroke-linejoin="round"/>
<path fill-rule="evenodd" clip-rule="evenodd" d="M56.0514 10.6102L58.4048 11.7868L56.8359 12.9635L56.8359 14.1401L58.4048 15.3168L56.0514 16.4935L53.6981 15.709H51.3448L48.9915 16.4935L46.6382 15.3168L48.207 14.1401L48.207 12.9635L46.6382 11.7868L48.9915 10.6102L51.3448 11.3946H53.6981L56.0514 10.6102ZM54.0903 12.7674C53.6742 12.5593 53.1099 12.4424 52.5215 12.4424C51.933 12.4424 51.3687 12.5593 50.9526 12.7674C50.5365 12.9754 50.3027 13.2576 50.3027 13.5518C50.3027 13.846 50.5365 14.1282 50.9526 14.3362C51.3687 14.5443 51.933 14.6612 52.5215 14.6612C53.1099 14.6612 53.6742 14.5443 54.0903 14.3362C54.5064 14.1282 54.7402 13.846 54.7402 13.5518C54.7402 13.2576 54.5064 12.9754 54.0903 12.7674Z" fill="#141FB5" stroke="#141FB5" stroke-width="0.782664" stroke-linecap="round" stroke-linejoin="round"/>
<path fill-rule="evenodd" clip-rule="evenodd" d="M56.0514 10.1059L58.4048 11.2826L56.8359 12.4592L56.8359 13.6359L58.4048 14.8125L56.0514 15.9892L53.6981 15.2048H51.3448L48.9915 15.9892L46.6382 14.8125L48.207 13.6359L48.207 12.4592L46.6382 11.2826L48.9915 10.1059L51.3448 10.8903H53.6981L56.0514 10.1059ZM54.0903 12.2631C53.6742 12.0551 53.1099 11.9382 52.5215 11.9382C51.933 11.9382 51.3687 12.0551 50.9526 12.2631C50.5365 12.4712 50.3027 12.7533 50.3027 13.0475C50.3027 13.3418 50.5365 13.6239 50.9526 13.832C51.3687 14.04 51.933 14.1569 52.5215 14.1569C53.1099 14.1569 53.6742 14.04 54.0903 13.832C54.5064 13.6239 54.7402 13.3418 54.7402 13.0475C54.7402 12.7533 54.5064 12.4712 54.0903 12.2631Z" fill="#141FB5" stroke="#141FB5" stroke-width="0.782664" stroke-linecap="round" stroke-linejoin="round"/>
<path fill-rule="evenodd" clip-rule="evenodd" d="M56.0514 9.60165L58.4048 10.7783L56.8359 11.955L56.8359 13.1316L58.4048 14.3083L56.0514 15.4849L53.6981 14.7005H51.3448L48.9915 15.4849L46.6382 14.3083L48.207 13.1316L48.207 11.955L46.6382 10.7783L48.9915 9.60165L51.3448 10.3861H53.6981L56.0514 9.60165ZM54.0903 11.7589C53.6742 11.5508 53.1099 11.4339 52.5215 11.4339C51.933 11.4339 51.3687 11.5508 50.9526 11.7589C50.5365 11.9669 50.3027 12.2491 50.3027 12.5433C50.3027 12.8375 50.5365 13.1197 50.9526 13.3277C51.3687 13.5358 51.933 13.6527 52.5215 13.6527C53.1099 13.6527 53.6742 13.5358 54.0903 13.3277C54.5064 13.1197 54.7402 12.8375 54.7402 12.5433C54.7402 12.2491 54.5064 11.9669 54.0903 11.7589Z" fill="white" stroke="#1C2BFF" stroke-width="0.65222" stroke-linecap="round" stroke-linejoin="round"/>
<path d="M36.9054 8.12213C36.413 8.36829 36.4131 8.76738 36.9054 9.01354C37.3977 9.25969 38.1959 9.2597 38.6882 9.01354L37.7968 8.56784L36.9054 8.12213ZM56.8729 18.1059C56.3806 18.3521 56.3806 18.7512 56.8729 18.9973C57.3652 19.2435 58.1634 19.2435 58.6557 18.9973L57.7643 18.5516L56.8729 18.1059ZM39.9491 8.49122C40.5264 8.29666 40.679 7.90492 40.2899 7.61625C39.9008 7.32758 39.1173 7.25129 38.5399 7.44585L39.2445 7.96854L39.9491 8.49122ZM40.4226 6.94572C39.7766 7.07552 39.4633 7.4426 39.7229 7.76561C39.9826 8.08862 40.7167 8.24525 41.3627 8.11545L40.8927 7.53058L40.4226 6.94572ZM44.5323 7.83877C45.2283 7.84649 45.8051 7.57062 45.8205 7.22258C45.836 6.87455 45.2842 6.58616 44.5882 6.57844L44.5602 7.20861L44.5323 7.83877ZM46.6595 6.69004C45.9756 6.62484 45.3155 6.8492 45.1851 7.19116C45.0547 7.53312 45.5034 7.86318 46.1873 7.92837L46.4234 7.30921L46.6595 6.69004ZM49.4198 8.47518C50.0469 8.62635 50.8004 8.49468 51.1028 8.1811C51.4051 7.86752 51.1418 7.49077 50.5146 7.3396L49.9672 7.90739L49.4198 8.47518ZM52.2717 7.82281C51.6798 7.63948 50.9028 7.73076 50.5361 8.02669C50.1695 8.32261 50.352 8.71113 50.9439 8.89447L51.6078 8.35864L52.2717 7.82281ZM53.7398 9.95674C54.2534 10.1917 55.0509 10.174 55.5209 9.91722C55.9909 9.66039 55.9555 9.26169 55.4418 9.02669L54.5908 9.49172L53.7398 9.95674ZM56.8466 9.72908C56.3766 9.47225 55.5792 9.45456 55.0655 9.68956C54.5519 9.92456 54.5165 10.3233 54.9865 10.5801L55.9165 10.1546L56.8466 9.72908ZM57.111 11.978C57.4777 12.274 58.2547 12.3653 58.8466 12.1819C59.4385 11.9986 59.621 11.6101 59.2543 11.3141L58.1827 11.6461L57.111 11.978ZM60.2208 12.1927C59.9184 11.8791 59.1649 11.7474 58.5378 11.8986C57.9106 12.0498 57.6473 12.4265 57.9496 12.7401L59.0852 12.4664L60.2208 12.1927ZM59.0432 14.3563C59.1736 14.6983 59.8337 14.9226 60.5177 14.8574C61.2016 14.7922 61.6503 14.4622 61.5199 14.1202L60.2816 14.2383L59.0432 14.3563ZM61.7431 15.1559C61.7277 14.8079 61.1509 14.532 60.4548 14.5397C59.7587 14.5474 59.207 14.8358 59.2224 15.1839L60.4828 15.1699L61.7431 15.1559ZM58.6691 16.7686C58.4095 17.0916 58.7227 17.4587 59.3688 17.5885C60.0148 17.7183 60.7489 17.5617 61.0085 17.2387L59.8388 17.0037L58.6691 16.7686ZM60.0083 18.18C60.3974 17.8913 60.2448 17.4996 59.6675 17.305C59.0901 17.1105 58.3067 17.1868 57.9175 17.4754L58.9629 17.8277L60.0083 18.18ZM37.7968 8.56784L38.6882 9.01354C39.0953 8.80996 39.517 8.63684 39.9491 8.49122L39.2445 7.96854L38.5399 7.44585C37.9693 7.63814 37.4232 7.86323 36.9054 8.12213L37.7968 8.56784ZM40.8927 7.53058L41.3627 8.11545C42.3625 7.91456 43.4278 7.82653 44.5323 7.83877L44.5602 7.20861L44.5882 6.57844C43.1759 6.56278 41.7681 6.67538 40.4226 6.94572L40.8927 7.53058ZM46.4234 7.30921L46.1873 7.92837C47.258 8.03044 48.3465 8.21649 49.4198 8.47518L49.9672 7.90739L50.5146 7.3396C49.2696 7.03952 47.9724 6.81519 46.6595 6.69004L46.4234 7.30921ZM51.6078 8.35864L50.9439 8.89447C51.9223 9.19753 52.8638 9.55598 53.7398 9.95674L54.5908 9.49172L55.4418 9.02669C54.4557 8.57554 53.3895 8.16908 52.2717 7.82281L51.6078 8.35864ZM55.9165 10.1546L54.9865 10.5801C55.788 11.0181 56.5049 11.4889 57.111 11.978L58.1827 11.6461L59.2543 11.3141C58.5618 10.7552 57.7489 10.2221 56.8466 9.72908L55.9165 10.1546ZM59.0852 12.4664L57.9496 12.7401C58.467 13.2767 58.8391 13.821 59.0432 14.3563L60.2816 14.2383L61.5199 14.1202C61.2696 13.4638 60.8209 12.8152 60.2208 12.1927L59.0852 12.4664ZM60.4828 15.1699L59.2224 15.1839C59.2469 15.7361 59.0709 16.2687 58.6691 16.7686L59.8388 17.0037L61.0085 17.2387C61.5492 16.566 61.7744 15.862 61.7431 15.1559L60.4828 15.1699ZM58.9629 17.8277L57.9175 17.4754C57.6263 17.6915 57.2801 17.9023 56.8729 18.1059L57.7643 18.5516L58.6557 18.9973C59.1735 18.7384 59.6237 18.4653 60.0083 18.18L58.9629 17.8277Z" fill="#1C2BFF"/>
</svg>
