<svg width="87" height="44" viewBox="0 0 87 44" fill="none" xmlns="http://www.w3.org/2000/svg">
<path d="M86.2876 21.7503L43.5 0.356525L0.712419 21.7503L43.5 43.1441L86.2876 21.7503Z" fill="white" stroke="#CBD5E1" stroke-width="0.790569" stroke-dasharray="2.37 2.37"/>
<path d="M64.8954 11.0533L64.5389 10.875L63.4692 11.4098L63.8258 11.5881L64.1823 11.7664L65.252 11.2315L64.8954 11.0533ZM61.6864 12.6578L61.3298 12.4795L59.1904 13.5492L59.547 13.7275L59.9036 13.9058L62.0429 12.8361L61.6864 12.6578ZM57.4076 14.7972L57.0511 14.6189L54.9117 15.6886L55.2682 15.8669L55.6248 16.0451L57.7642 14.9755L57.4076 14.7972ZM53.1289 16.9366L52.7723 16.7583L50.6329 17.828L50.9895 18.0062L51.346 18.1845L53.4854 17.1148L53.1289 16.9366ZM48.8501 19.0759L48.4935 18.8977L46.3542 19.9673L46.7107 20.1456L47.0673 20.3239L49.2067 19.2542L48.8501 19.0759ZM44.5713 21.2153L44.2148 21.037L42.0754 22.1067L42.432 22.285L42.7885 22.4633L44.9279 21.3936L44.5713 21.2153ZM40.2926 23.3547L39.936 23.1764L37.7966 24.2461L38.1532 24.4244L38.5098 24.6027L40.6492 23.533L40.2926 23.3547ZM36.0138 25.4941L35.6573 25.3158L33.5179 26.3855L33.8745 26.5638L34.231 26.742L36.3704 25.6724L36.0138 25.4941ZM31.7351 27.6334L31.3785 27.4552L29.2391 28.5249L29.5957 28.7031L29.9523 28.8814L32.0916 27.8117L31.7351 27.6334ZM27.4563 29.7728L27.0998 29.5945L24.9604 30.6642L25.3169 30.8425L25.6735 31.0208L27.8129 29.9511L27.4563 29.7728ZM23.1776 31.9122L22.821 31.7339L21.7513 32.2688L22.1079 32.4471L22.4644 32.6253L23.5341 32.0905L23.1776 31.9122Z" fill="#CBD5E1"/>
<path d="M22.1046 11.0533L21.748 11.2315L22.8177 11.7664L23.1742 11.5881L23.5308 11.4098L22.4611 10.875L22.1046 11.0533ZM25.3136 12.6578L24.9571 12.8361L27.0964 13.9058L27.453 13.7275L27.8096 13.5492L25.6702 12.4795L25.3136 12.6578ZM29.5924 14.7972L29.2358 14.9755L31.3752 16.0451L31.7318 15.8669L32.0883 15.6886L29.9489 14.6189L29.5924 14.7972ZM33.8711 16.9366L33.5146 17.1148L35.654 18.1845L36.0105 18.0062L36.3671 17.828L34.2277 16.7583L33.8711 16.9366ZM38.1499 19.0759L37.7933 19.2542L39.9327 20.3239L40.2893 20.1456L40.6458 19.9673L38.5065 18.8977L38.1499 19.0759ZM42.4287 21.2153L42.0721 21.3936L44.2115 22.4633L44.568 22.285L44.9246 22.1067L42.7852 21.037L42.4287 21.2153ZM46.7074 23.3547L46.3508 23.533L48.4902 24.6027L48.8468 24.4244L49.2034 24.2461L47.064 23.1764L46.7074 23.3547ZM50.9862 25.4941L50.6296 25.6724L52.769 26.742L53.1255 26.5638L53.4821 26.3855L51.3427 25.3158L50.9862 25.4941ZM55.2649 27.6334L54.9084 27.8117L57.0477 28.8814L57.4043 28.7031L57.7609 28.5249L55.6215 27.4552L55.2649 27.6334ZM59.5437 29.7728L59.1871 29.9511L61.3265 31.0208L61.6831 30.8425L62.0396 30.6642L59.9002 29.5945L59.5437 29.7728ZM63.8224 31.9122L63.4659 32.0905L64.5356 32.6253L64.8921 32.4471L65.2487 32.2688L64.179 31.7339L63.8224 31.9122Z" fill="#CBD5E1"/>
<path fill-rule="evenodd" clip-rule="evenodd" d="M47.7822 18.5304L62.0448 25.6617L52.061 30.6536C44.9297 34.2192 32.0935 33.5061 32.0935 33.5061C32.0935 33.5061 30.6672 27.088 37.7985 23.5223L47.7822 18.5304Z" fill="white" stroke="#FF7F1C" stroke-width="1.18585" stroke-linecap="round" stroke-linejoin="round"/>
<path fill-rule="evenodd" clip-rule="evenodd" d="M47.7822 18.5304L62.0448 25.6617L52.061 30.6536C44.9297 34.2192 32.0935 33.5061 32.0935 33.5061C32.0935 33.5061 30.6672 27.088 37.7985 23.5223L47.7822 18.5304Z" fill="#C25E0A" stroke="#C25E0A" stroke-width="1.42302" stroke-linecap="round" stroke-linejoin="round"/>
<path fill-rule="evenodd" clip-rule="evenodd" d="M47.7822 18.0262L62.0448 25.1574L52.061 30.1493C44.9297 33.715 32.0935 33.0018 32.0935 33.0018C32.0935 33.0018 30.6672 26.5837 37.7985 23.0181L47.7822 18.0262Z" fill="#C25E0A" stroke="#C25E0A" stroke-width="1.42302" stroke-linecap="round" stroke-linejoin="round"/>
<path fill-rule="evenodd" clip-rule="evenodd" d="M47.7822 17.5219L62.0448 24.6532L52.061 29.6451C44.9297 33.2107 32.0935 32.4976 32.0935 32.4976C32.0935 32.4976 30.6672 26.0794 37.7985 22.5138L47.7822 17.5219Z" fill="#C25E0A" stroke="#C25E0A" stroke-width="1.42302" stroke-linecap="round" stroke-linejoin="round"/>
<path fill-rule="evenodd" clip-rule="evenodd" d="M47.7822 17.0177L62.0448 24.1489L52.061 29.1408C44.9297 32.7065 32.0935 31.9933 32.0935 31.9933C32.0935 31.9933 30.6672 25.5752 37.7985 22.0096L47.7822 17.0177Z" fill="#C25E0A" stroke="#C25E0A" stroke-width="1.42302" stroke-linecap="round" stroke-linejoin="round"/>
<path fill-rule="evenodd" clip-rule="evenodd" d="M47.7822 16.5134L62.0448 23.6447L52.061 28.6366C44.9297 32.2022 32.0935 31.4891 32.0935 31.4891C32.0935 31.4891 30.6672 25.0709 37.7985 21.5053L47.7822 16.5134Z" fill="#C25E0A" stroke="#C25E0A" stroke-width="1.42302" stroke-linecap="round" stroke-linejoin="round"/>
<path fill-rule="evenodd" clip-rule="evenodd" d="M47.7822 16.0092L62.0448 23.1404L52.061 28.1323C44.9297 31.6979 32.0935 30.9848 32.0935 30.9848C32.0935 30.9848 30.6672 24.5667 37.7985 21.001L47.7822 16.0092Z" fill="#C25E0A" stroke="#C25E0A" stroke-width="1.42302" stroke-linecap="round" stroke-linejoin="round"/>
<path fill-rule="evenodd" clip-rule="evenodd" d="M47.7822 15.5049L62.0448 22.6362L52.061 27.628C44.9297 31.1937 32.0935 30.4806 32.0935 30.4806C32.0935 30.4806 30.6672 24.0624 37.7985 20.4968L47.7822 15.5049Z" fill="#C25E0A" stroke="#C25E0A" stroke-width="1.42302" stroke-linecap="round" stroke-linejoin="round"/>
<path fill-rule="evenodd" clip-rule="evenodd" d="M47.7822 15.0006L62.0448 22.1319L52.061 27.1238C44.9297 30.6894 32.0935 29.9763 32.0935 29.9763C32.0935 29.9763 30.6672 23.5582 37.7985 19.9925L47.7822 15.0006Z" fill="#C25E0A" stroke="#C25E0A" stroke-width="1.42302" stroke-linecap="round" stroke-linejoin="round"/>
<path fill-rule="evenodd" clip-rule="evenodd" d="M47.7822 14.4964L62.0448 21.6277L52.061 26.6195C44.9297 30.1852 32.0935 29.472 32.0935 29.472C32.0935 29.472 30.6672 23.0539 37.7985 19.4883L47.7822 14.4964Z" fill="#C25E0A" stroke="#C25E0A" stroke-width="1.42302" stroke-linecap="round" stroke-linejoin="round"/>
<path fill-rule="evenodd" clip-rule="evenodd" d="M47.7822 13.9921L62.0448 21.1234L52.061 26.1153C44.9297 29.6809 32.0935 28.9678 32.0935 28.9678C32.0935 28.9678 30.6672 22.5496 37.7985 18.984L47.7822 13.9921Z" fill="#C25E0A" stroke="#C25E0A" stroke-width="1.42302" stroke-linecap="round" stroke-linejoin="round"/>
<path fill-rule="evenodd" clip-rule="evenodd" d="M47.7822 13.4879L62.0448 20.6191L52.061 25.611C44.9297 29.1767 32.0935 28.4635 32.0935 28.4635C32.0935 28.4635 30.6672 22.0454 37.7985 18.4798L47.7822 13.4879Z" fill="#C25E0A" stroke="#C25E0A" stroke-width="1.42302" stroke-linecap="round" stroke-linejoin="round"/>
<path fill-rule="evenodd" clip-rule="evenodd" d="M47.7822 12.9836L62.0448 20.1149L52.061 25.1068C44.9297 28.6724 32.0935 27.9593 32.0935 27.9593C32.0935 27.9593 30.6672 21.5411 37.7985 17.9755L47.7822 12.9836Z" fill="#C25E0A" stroke="#C25E0A" stroke-width="1.42302" stroke-linecap="round" stroke-linejoin="round"/>
<path fill-rule="evenodd" clip-rule="evenodd" d="M47.7822 12.4794L62.0448 19.6106L52.061 24.6025C44.9297 28.1681 32.0935 27.455 32.0935 27.455C32.0935 27.455 30.6672 21.0369 37.7985 17.4712L47.7822 12.4794Z" fill="white" stroke="#FF7F1C" stroke-width="1.18585" stroke-linecap="round" stroke-linejoin="round"/>
<path d="M40.6472 19.1425C43.798 20.7179 48.9064 20.7179 52.0572 19.1425C55.208 17.5671 55.208 15.0129 52.0572 13.4375C48.9064 11.8621 43.798 11.8621 40.6472 13.4375C37.4964 15.0129 37.4964 17.5671 40.6472 19.1425Z" fill="white" stroke="#1C2BFF" stroke-width="1.18585" stroke-linecap="round" stroke-linejoin="round"/>
<path d="M40.6472 19.1425C43.798 20.7179 48.9064 20.7179 52.0572 19.1425C55.208 17.5671 55.208 15.0129 52.0572 13.4375C48.9064 11.8621 43.798 11.8621 40.6472 13.4375C37.4964 15.0129 37.4964 17.5671 40.6472 19.1425Z" fill="#141FB5" stroke="#141FB5" stroke-width="1.42302" stroke-linecap="round" stroke-linejoin="round"/>
<path d="M40.6472 18.6382C43.798 20.2136 48.9064 20.2136 52.0572 18.6382C55.208 17.0628 55.208 14.5086 52.0572 12.9332C48.9064 11.3578 43.798 11.3578 40.6472 12.9332C37.4964 14.5086 37.4964 17.0628 40.6472 18.6382Z" fill="#141FB5" stroke="#141FB5" stroke-width="1.42302" stroke-linecap="round" stroke-linejoin="round"/>
<path d="M40.6472 18.134C43.798 19.7094 48.9064 19.7094 52.0572 18.134C55.208 16.5586 55.208 14.0043 52.0572 12.4289C48.9064 10.8536 43.798 10.8536 40.6472 12.4289C37.4964 14.0043 37.4964 16.5586 40.6472 18.134Z" fill="#141FB5" stroke="#141FB5" stroke-width="1.42302" stroke-linecap="round" stroke-linejoin="round"/>
<path d="M40.6472 17.6297C43.798 19.2051 48.9064 19.2051 52.0572 17.6297C55.208 16.0543 55.208 13.5001 52.0572 11.9247C48.9064 10.3493 43.798 10.3493 40.6472 11.9247C37.4964 13.5001 37.4964 16.0543 40.6472 17.6297Z" fill="#141FB5" stroke="#141FB5" stroke-width="1.42302" stroke-linecap="round" stroke-linejoin="round"/>
<path d="M40.6472 17.1254C43.798 18.7008 48.9064 18.7008 52.0572 17.1254C55.208 15.55 55.208 12.9958 52.0572 11.4204C48.9064 9.84504 43.798 9.84504 40.6472 11.4204C37.4964 12.9958 37.4964 15.55 40.6472 17.1254Z" fill="white" stroke="#1C2BFF" stroke-width="1.18585" stroke-linecap="round" stroke-linejoin="round"/>
<path d="M49.9175 13.2033C50.3114 13.0064 50.3114 12.6871 49.9175 12.4902C49.5237 12.2932 48.8851 12.2932 48.4913 12.4902L49.2044 12.8467L49.9175 13.2033ZM46.3519 14.273L45.6388 13.9164C45.2449 14.1133 45.2449 14.4326 45.6388 14.6295L46.3519 14.273ZM48.4913 16.0558C48.8851 16.2527 49.5237 16.2527 49.9175 16.0558C50.3114 15.8589 50.3114 15.5396 49.9175 15.3427L49.2044 15.6992L48.4913 16.0558ZM49.2044 12.8467L48.4913 12.4902L45.6388 13.9164L46.3519 14.273L47.065 14.6295L49.9175 13.2033L49.2044 12.8467ZM46.3519 14.273L45.6388 14.6295L48.4913 16.0558L49.2044 15.6992L49.9175 15.3427L47.065 13.9164L46.3519 14.273Z" fill="#1C2BFF"/>
<path d="M45.6391 14.6295C46.0329 14.8264 46.6715 14.8264 47.0653 14.6295C47.4592 14.4325 47.4592 14.1133 47.0653 13.9163C46.6715 13.7194 46.0329 13.7194 45.6391 13.9163C45.2452 14.1133 45.2452 14.4325 45.6391 14.6295Z" fill="black" stroke="#1C2BFF" stroke-width="1.18585" stroke-linecap="round" stroke-linejoin="round"/>
</svg>
